<?xml version="1.0" encoding="utf-8"?>
<!-- Generator: Adobe Illustrator 21.1.0, SVG Export Plug-In . SVG Version: 6.00 Build 0)  -->
<svg version="1.1" baseProfile="tiny" id="Capa_1" xmlns="http://www.w3.org/2000/svg" xmlns:xlink="http://www.w3.org/1999/xlink"
	 x="0px" y="0px" viewBox="0 0 344.5 344.5" xml:space="preserve">
<g>
	<g>
		<path fill="#84BD93" d="M179.1,44.3c0.2,0.3,0.3,0.7,0.5,1C179.4,45,179.3,44.7,179.1,44.3z"/>
		<path fill="#84BD93" d="M180,46.2c0.1,0.4,0.3,0.7,0.4,1.1C180.2,46.9,180.1,46.6,180,46.2z"/>
		<path fill="#84BD93" d="M180.6,48.1c0.1,0.4,0.2,0.7,0.2,1.1C180.8,48.8,180.7,48.5,180.6,48.1z"/>
		<path fill="#84BD93" d="M178,42.4c0.2,0.3,0.4,0.6,0.6,1C178.4,43.1,178.2,42.8,178,42.4z"/>
		<path fill="#84BD93" d="M175.6,39.4c-0.2-0.3-0.5-0.5-0.7-0.8C175.1,38.9,175.3,39.2,175.6,39.4z"/>
		<path fill="#84BD93" d="M180.8,49.4c-0.5-0.4-1.1-0.9-1.6-1.3c-12.8-10.1-38-19.7-51.9-19.7c-2.9,0-4.5,0.5-5.1,0.7
			c-0.5,1.9,0.6,8.4,6.5,19.1c5.4,7.3,11.3,13.7,16.8,18c5.4,4.3,10.5,6.5,15.1,6.5c6.8,0,12-4.8,15.2-8.8c3.6-4.5,5.3-8.9,5.2-13
			C181,50.4,180.9,49.9,180.8,49.4z"/>
		<path fill="#84BD93" d="M128.3,47.5c-0.9-1.2-1.7-2.4-2.6-3.6C126.6,45.1,127.5,46.3,128.3,47.5z"/>
		<path fill="#84BD93" d="M124.9,42.5c-1.1-1.6-2.1-3.3-3.1-5C122.7,39.2,123.8,40.9,124.9,42.5z"/>
		<path fill="#84BD93" d="M172.9,36.7c0.2,0.2,0.5,0.4,0.7,0.7C173.3,37.1,173.1,36.9,172.9,36.7z"/>
		<path fill="#84BD93" d="M176.5,40.5c0.2,0.3,0.5,0.6,0.7,0.9C177,41.1,176.8,40.8,176.5,40.5z"/>
	</g>
</g>
</svg>
