<?xml version="1.0" encoding="utf-8"?>
<!-- Generator: Adobe Illustrator 21.1.0, SVG Export Plug-In . SVG Version: 6.00 Build 0)  -->
<svg version="1.1" baseProfile="tiny" id="Capa_1" xmlns="http://www.w3.org/2000/svg" xmlns:xlink="http://www.w3.org/1999/xlink"
	 x="0px" y="0px" viewBox="0 0 344.5 344.5" xml:space="preserve">
<g>
	<path fill="#3F2D20" d="M106.7,123.3c-30.2,9.7-36.8,39-36,53.2c0.2,4,3.5,7.1,7.5,7.1c0.1,0,0.2,0,0.4,0c4.1-0.2,7.3-3.7,7.1-7.9
		c-0.1-1.2-1-29.5,25.6-38.1c4-1.3,6.1-5.5,4.9-9.5C114.9,124.2,110.7,122,106.7,123.3z"/>
	<path fill="#3F2D20" d="M301.8,151.8c-6.8-22.8-21.4-40.4-42.3-50.9c-19.2-9.7-43.1-12.6-67.1-8.2c-3.7,0.7-7.4,1.6-10.9,2.6
		c3-14.8,12.6-43.6,43-62.7c3.5-2.2,4.6-6.9,2.4-10.4c-2.2-3.5-6.9-4.6-10.4-2.4c-9.3,5.8-16.9,12.4-23.2,19.3
		c-2.6-5.7-7.1-11.1-13.4-16.1c-15.4-12.3-44-23-61.2-23c-7.8,0-13.5,2.1-16.9,6.4c-5.9,7.4-3.9,19.9,5.9,37.1
		c7.7,13.4,18.6,26.7,28.5,34.5c8.1,6.5,16.4,9.7,24.5,9.7c2.5,0,4.9-0.3,7.3-0.9c-0.9,3.6-1.5,6.8-2,9.5c-4.5-1.5-9.2-2.7-13.9-3.6
		c-24-4.4-47.9-1.5-67.1,8.2c-20.9,10.5-35.5,28.1-42.3,50.9c-3.6,12-14.4,48.4,16.3,91.4c7.2,10.1,12.1,22.5,17.3,35.6
		c12.3,31,26,65.7,74.8,65.7c6.4,0,13.4-0.6,21.1-1.9c7.7,1.3,14.7,1.9,21.1,1.9c48.8,0,62.5-34.7,74.8-65.7
		c5.2-13.1,10.1-25.5,17.3-35.6C316.2,200.2,305.4,163.8,301.8,151.8z M273.2,234.5c-8.3,11.6-13.7,25.4-19,38.8
		c-13.6,34.3-25.3,64-80.6,54.3c0,0,0,0-0.1,0c-0.8-0.1-1.7-0.1-2.5,0c-55.3,9.7-67.1-20-80.6-54.3c-5.3-13.4-10.7-27.2-19-38.8
		c-26.5-37.1-17.2-68.2-14.2-78.4c12.8-42.9,55.5-55.3,92.3-48.6c6.9,1.3,13.7,3.1,19.8,6.1c3.1,1.5,5.1,0.5,6.1,0
		c6.2-2.9,12.9-4.8,19.8-6.1c36.7-6.7,79.5,5.8,92.3,48.6C290.4,166.3,299.7,197.4,273.2,234.5z M121.7,37.6
		c-7.3-12.3-8.6-19.8-8.1-21.8c0.6-0.3,2.1-0.7,5.1-0.7c13.9,0,39.1,9.6,51.9,19.7c6.7,5.3,10.2,10.7,10.4,16.1
		c0.2,4.1-1.6,8.5-5.2,13c-3.2,4-8.4,8.8-15.2,8.8c-4.6,0-9.7-2.2-15.1-6.5C137.6,59.8,128.4,48.9,121.7,37.6z"/>
</g>
</svg>
