<?xml version="1.0" encoding="UTF-8" standalone="no"?>
<!-- Created with Inkscape (http://www.inkscape.org/) -->

<svg
   xmlns:dc="http://purl.org/dc/elements/1.1/"
   xmlns:cc="http://creativecommons.org/ns#"
   xmlns:rdf="http://www.w3.org/1999/02/22-rdf-syntax-ns#"
   xmlns:svg="http://www.w3.org/2000/svg"
   xmlns="http://www.w3.org/2000/svg"
   xmlns:sodipodi="http://sodipodi.sourceforge.net/DTD/sodipodi-0.dtd"
   xmlns:inkscape="http://www.inkscape.org/namespaces/inkscape"
   width="210mm"
   height="297mm"
   viewBox="0 0 744.09448819 1052.3622047"
   id="svg5605"
   version="1.1"
   inkscape:version="0.91 r13725"
   sodipodi:docname="achiles1.svg">
  <defs
     id="defs5607" />
  <sodipodi:namedview
     id="base"
     pagecolor="#000000"
     bordercolor="#666666"
     borderopacity="1.0"
     inkscape:pageopacity="1"
     inkscape:pageshadow="2"
     inkscape:zoom="1.979899"
     inkscape:cx="370.26678"
     inkscape:cy="404.53862"
     inkscape:document-units="px"
     inkscape:current-layer="layer1"
     showgrid="false"
     inkscape:object-nodes="false"
     inkscape:object-paths="true"
     inkscape:window-width="1081"
     inkscape:window-height="1028"
     inkscape:window-x="835"
     inkscape:window-y="4"
     inkscape:window-maximized="0"
     inkscape:snap-nodes="false" />
  <metadata
     id="metadata5610">
    <rdf:RDF>
      <cc:Work
         rdf:about="">
        <dc:format>image/svg+xml</dc:format>
        <dc:type
           rdf:resource="http://purl.org/dc/dcmitype/StillImage" />
        <dc:title></dc:title>
      </cc:Work>
    </rdf:RDF>
  </metadata>
  <g
     inkscape:label="Layer 1"
     inkscape:groupmode="layer"
     id="layer1">
    <path
       style="fill:#534b28;fill-opacity:1;stroke:#ffffff;stroke-width:1.57017529;stroke-linecap:butt;stroke-miterlimit:4;stroke-dasharray:none;stroke-opacity:1"
       d="m 446.43192,511.33409 c 0,66.77884 -38.65381,101.50063 -101.50064,101.50063 -65.34924,0 -101.50063,-40.44053 -101.50063,-101.50063 0,-63.91887 40.44053,-101.50064 101.50063,-101.50064 70.3523,0 101.50064,35.08034 101.50064,101.50064 z"
       id="path5626"
       inkscape:connector-curvature="0"
       sodipodi:nodetypes="sssss" />
    <path
       style="fill:#840000;fill-opacity:1;fill-rule:evenodd;stroke:#ffffff;stroke-width:1px;stroke-linecap:butt;stroke-linejoin:miter;stroke-opacity:1"
       d="m 402.31736,163.72374 17.70305,-36.99051 c 0,0 -76.11858,-17.34064 -105.05587,9.59646 -32.20559,29.97948 -45.96194,81.31728 -44.95178,105.56094 l 45.161,-3.49002 z"
       id="path5616"
       inkscape:connector-curvature="0"
       sodipodi:nodetypes="ccsccc" />
    <path
       style="fill:#502813;fill-opacity:1;stroke:#ffffff;stroke-width:2;stroke-linecap:square;stroke-miterlimit:4;stroke-dasharray:none;stroke-opacity:1"
       d="m 323.04576,630.79938 c -10.23681,49.28665 -43.99035,101.101 -50.88644,129.67833 -1.51138,6.26316 -8.49522,9.52477 -12.31556,9.93548 -35.11916,3.77553 -117.6808,38.99257 -186.529756,47.43771 l -13.13198,58.58886 -15.15229,-89.90358 c 65.077506,-30.15434 112.624036,-43.32774 183.061686,-54.72155 10.34674,-43.26216 25.08672,-87.18231 50.50763,-120.20815"
       id="path4171"
       inkscape:connector-curvature="0"
       sodipodi:nodetypes="cssccccc" />
    <path
       style="fill:#00d400;fill-opacity:1;stroke:#ffffff;stroke-width:2;stroke-linecap:square;stroke-miterlimit:4;stroke-dasharray:none;stroke-opacity:1"
       d="m 322.03561,592.41358 c 84.1985,18.82558 182.18151,79.73861 196.02561,101.01 2.69207,4.13636 2.63005,8.82464 -0.32146,12.36277 -25.6607,30.76079 -119.28112,71.43218 -187.62293,100.77957 l 10.10153,60.60915 -54.54824,-75.76144 C 333.14654,759.66555 384.26459,721.19564 449.31484,699.48975 398.72477,681.93575 338.8055,666.2537 298.8021,632.81968"
       id="path4169"
       inkscape:connector-curvature="0"
       sodipodi:nodetypes="cssccccc" />
    <path
       style="fill:#942813;fill-opacity:1;stroke:none;stroke-width:0.30000001;stroke-linecap:square;stroke-miterlimit:4;stroke-dasharray:none;stroke-opacity:1"
       d="m 332.3954,338.66079 c -45.31795,34.44945 -123.07986,93.12555 -125.07397,113.87998 -1.73495,18.05718 60.04009,66.97944 98.39286,83.39286 9.13976,3.91144 23.16052,-12.77725 20,-15.71429 C 298.88324,495.28551 264.60971,477.56047 240,453.07648 c 46.22725,-34.16841 97.31683,-64.1149 125,-110.71428 5.75049,-9.67985 -20.46934,-10.32248 -32.6046,-3.70141 z"
       id="path4177"
       inkscape:connector-curvature="0"
       sodipodi:nodetypes="cssscsc" />
    <path
       style="fill:#338000;fill-opacity:1;stroke:none;stroke-width:0.30000001;stroke-linecap:square;stroke-miterlimit:4;stroke-dasharray:none;stroke-opacity:1"
       d="m 265.89358,595.63332 80.78919,-0.81151 c 7.63816,-61.13783 30.57382,-94.14078 40.65837,-170.37819 3.93923,-29.77987 -1.29405,-58.25055 -5.74319,-84.112 C 380.18923,332.14316 369.63,322.06894 367.7455,314.0099 l -21.59204,-4.79314 c -3.46228,6.88855 -24.67017,10.33056 -29.46755,21.22338 -39.91067,90.62022 -34.68121,174.09858 -50.79233,265.19318 z"
       id="path4175"
       inkscape:connector-curvature="0"
       sodipodi:nodetypes="ccssccsc" />
    <path
       style="fill:#656768;fill-opacity:1;stroke:#ffffff;stroke-width:1;stroke-linecap:butt;stroke-miterlimit:4;stroke-dasharray:none;stroke-opacity:1"
       d="m 429.35767,244.04517 c -12.31848,46.14209 -41.33657,75.13639 -70.37471,69.0317 -30.25997,-6.36156 -50.87123,-28.61466 -42.74905,-84.45243 6.0631,-41.68217 39.55672,-72.02491 70.37469,-69.03169 31.73842,3.08261 55.43989,36.91562 42.74907,84.45242 z"
       id="path5613"
       inkscape:connector-curvature="0"
       sodipodi:nodetypes="sssss" />
    <path
       style="fill:none;fill-rule:evenodd;stroke:#ffffff;stroke-width:1px;stroke-linecap:butt;stroke-linejoin:miter;stroke-opacity:1"
       d="m 379.61431,224.71804 51.77031,8.33376"
       id="path5618"
       inkscape:connector-curvature="0" />
    <path
       style="fill:#004213;fill-opacity:0.53201967;stroke:none;stroke-width:0.30000001;stroke-linecap:square;stroke-miterlimit:4;stroke-dasharray:none;stroke-opacity:1"
       d="m 267.0562,584.50506 c -19.96792,40.71963 -36.37391,83.80419 -44.91334,126.42857 94.87384,11.14782 183.37214,-15.95762 270.71428,-50 -42.53386,-29.48332 -76.5382,-62.24722 -142.14286,-82.85715 -26.60154,-0.6641 -51.45107,-2.24978 -83.65808,6.42858 z"
       id="path4173"
       inkscape:connector-curvature="0"
       sodipodi:nodetypes="ccccc" />
    <path
       style="fill:#ac5300;fill-opacity:1;stroke:none;stroke-width:0.30000001;stroke-linecap:square;stroke-miterlimit:4;stroke-dasharray:none;stroke-opacity:1"
       d="m 515.03971,480.52238 c 1.78145,4.17263 4.88305,7.62672 9.58855,7.30816 l 29.34667,-41.56675 -12.71776,-8.56237 z"
       id="path4193"
       inkscape:connector-curvature="0"
       sodipodi:nodetypes="ccccc" />
    <path
       style="fill:#942813;fill-opacity:1;stroke:none;stroke-width:0.30000001;stroke-linecap:square;stroke-miterlimit:4;stroke-dasharray:none;stroke-opacity:1"
       d="m 331.78571,340.57648 c -5.50491,41.46037 26.90438,112.12245 39.64286,120.71429 15.63797,10.54749 113.7551,16.94401 170,13.92857 12.11264,-0.64939 11.83155,-22.53263 1.48985,-24.5921 -49.66736,-9.89086 -104.09961,-14.51841 -150.54097,-15.80837 -4.51521,-32.33563 -8.88007,-66.19161 -28.44888,-92.81382 -6.52648,-8.87888 -30.43788,-14.26964 -32.14286,-1.42857 z"
       id="path4179"
       inkscape:connector-curvature="0"
       sodipodi:nodetypes="sssscss" />
    <path
       style="fill:#cfc7c7;fill-opacity:1;stroke:none;stroke-width:0.30000001;stroke-linecap:square;stroke-miterlimit:4;stroke-dasharray:none;stroke-opacity:1"
       d="M 539.42902,438.52904 759.31645,115.81008 552.88683,447.8936 Z"
       id="path4197"
       inkscape:connector-curvature="0"
       sodipodi:nodetypes="cccc" />
    <path
       style="fill:#85776a;fill-opacity:1;stroke:none;stroke-width:0.30000001;stroke-linecap:square;stroke-miterlimit:4;stroke-dasharray:none;stroke-opacity:1"
       d="m 523.46921,431.43534 43.62817,28.54584 -9.23722,-13.07212 -20.8387,-13.4261 z"
       id="path4195"
       inkscape:connector-curvature="0"
       sodipodi:nodetypes="ccccc" />
  </g>
</svg>
