<?xml version="1.0" encoding="UTF-8" standalone="no"?>
<!-- Created with Inkscape (http://www.inkscape.org/) -->

<svg
   xmlns:dc="http://purl.org/dc/elements/1.1/"
   xmlns:cc="http://creativecommons.org/ns#"
   xmlns:rdf="http://www.w3.org/1999/02/22-rdf-syntax-ns#"
   xmlns:svg="http://www.w3.org/2000/svg"
   xmlns="http://www.w3.org/2000/svg"
   xmlns:sodipodi="http://sodipodi.sourceforge.net/DTD/sodipodi-0.dtd"
   xmlns:inkscape="http://www.inkscape.org/namespaces/inkscape"
   width="210mm"
   height="297mm"
   viewBox="0 0 744.09448819 1052.3622047"
   id="svg2"
   version="1.1"
   inkscape:version="0.91 r13725"
   sodipodi:docname="rabbit2.svg">
  <defs
     id="defs4" />
  <sodipodi:namedview
     id="base"
     pagecolor="#000000"
     bordercolor="#666666"
     borderopacity="1.0"
     inkscape:pageopacity="0"
     inkscape:pageshadow="2"
     inkscape:zoom="1.4"
     inkscape:cx="454.06598"
     inkscape:cy="755.79351"
     inkscape:document-units="px"
     inkscape:current-layer="layer1"
     showgrid="false"
     inkscape:window-width="1912"
     inkscape:window-height="1056"
     inkscape:window-x="0"
     inkscape:window-y="0"
     inkscape:window-maximized="0"
     inkscape:snap-global="false" />
  <metadata
     id="metadata7">
    <rdf:RDF>
      <cc:Work
         rdf:about="">
        <dc:format>image/svg+xml</dc:format>
        <dc:type
           rdf:resource="http://purl.org/dc/dcmitype/StillImage" />
        <dc:title></dc:title>
      </cc:Work>
    </rdf:RDF>
  </metadata>
  <g
     inkscape:label="Layer 1"
     inkscape:groupmode="layer"
     id="layer1"
     style="display:inline">
    <path
       sodipodi:nodetypes="cssssc"
       inkscape:connector-curvature="0"
       id="path5510"
       d="m 414.86594,320.12345 c -2.89367,-4.79083 -23.11173,-22.24923 -27.83262,-19.17139 -18.34449,11.95991 -31.16481,12.65577 -43.22566,14.7071 -15.02316,2.55516 -32.16327,1.65939 -45.58339,0.97607 -19.67776,-1.00195 -44.96453,-11.09277 -56.50157,-0.196 -9.85727,9.31022 -14.61259,14.01215 -8.07416,32.54153"
       style="display:inline;fill:#4a2100;fill-opacity:1;fill-rule:evenodd;stroke:#d6a12d;stroke-width:1px;stroke-linecap:butt;stroke-linejoin:miter;stroke-opacity:1" />
    <path
       sodipodi:nodetypes="cssssscsc"
       inkscape:connector-curvature="0"
       id="path5512"
       d="m 406.69219,307.87977 12.87945,16.66752 c 1.5703,2.03215 -5.13788,16.77875 1.88704,20.21814 7.80802,3.82279 40.21164,1.55938 45.7164,0.99507 3.95272,-0.4052 2.77791,6.31345 1.01015,7.82869 -3.88246,3.32784 -27.9432,4.87675 -47.35091,5.80837 -14.67925,0.70464 -28.15799,-2.65165 -28.15799,-2.65165 0,0 -26.04775,7.47388 -38.63833,10.10152 -21.54726,4.49689 -37.40651,4.99978 -79.67669,-0.47969 l -4.71845,-22.93411"
       style="fill:#4a2100;fill-opacity:1;fill-rule:evenodd;stroke:#d6a12d;stroke-width:1px;stroke-linecap:butt;stroke-linejoin:miter;stroke-opacity:1" />
    <path
       sodipodi:nodetypes="cscccc"
       inkscape:connector-curvature="0"
       id="path5514"
       d="m 285.34283,335.60481 c 7.90327,17.41067 -10.7867,40.28253 -29.61983,38.30985 -20.50432,-2.14772 -33.20244,-17.86698 -39.72717,-19.28038 -18.62739,7.542 -19.75598,33.33947 -35.54355,27.72302 -3.07792,-12.41843 6.60741,-24.11556 32.644,-43.86077 8.87636,0.89228 12.62283,10.94232 24.79034,6.83766"
       style="display:inline;fill:#4a2100;fill-opacity:1;fill-rule:evenodd;stroke:#d6a12d;stroke-width:1px;stroke-linecap:butt;stroke-linejoin:miter;stroke-opacity:1" />
    <path
       sodipodi:nodetypes="csssssssssssssc"
       inkscape:connector-curvature="0"
       id="path5516"
       d="m 400.19489,314.27886 c 11.60027,10.28919 14.10511,13.77815 18.78425,12.70832 4.67915,-1.06982 12.60242,-2.0193 14.63011,-4.74544 2.02768,-2.72615 13.71722,-1.59952 15.11977,-9.99582 1.40253,-8.39629 -2.91074,-12.55194 -7.5947,-15.98905 -4.68396,-3.43711 -8.56363,-7.35796 -13.24621,-9.50737 -4.68258,-2.14942 -6.85468,-2.8645 -9.72813,-3.70339 -2.87345,-0.83888 -2.59789,-3.93912 -1.05934,-7.02312 1.63251,-3.27233 3.03986,-6.72625 5.16967,-11.86549 2.88475,-6.96091 3.91708,-8.15702 2.64965,-8.82202 -3.84163,-2.01564 -13.3011,7.57113 -17.52221,13.67482 -2.2541,3.25941 -4.88428,7.50704 -7.46341,13.027 -3.3909,7.25737 -4.54089,11.22033 -10.15781,15.66122 -2.41001,1.90542 -4.15701,3.02557 -2.39767,4.08852 1.75933,1.06295 9.69225,9.12734 12.81603,12.49182 z"
       style="fill:#4a2100;fill-opacity:1;fill-rule:evenodd;stroke:#d6a12d;stroke-width:1px;stroke-linecap:butt;stroke-linejoin:miter;stroke-opacity:1" />
    <circle
       r="4.6088209"
       cy="297.46252"
       cx="425.44308"
       id="circle5518"
       style="fill:#ffffff;fill-opacity:1;stroke:none;stroke-width:10;stroke-linecap:butt;stroke-miterlimit:4;stroke-dasharray:none;stroke-opacity:1" />
    <path
       sodipodi:nodetypes="sssss"
       inkscape:connector-curvature="0"
       id="path5523"
       d="m 240.03871,327.62408 c -2.61674,4.15505 -7.6418,7.7489 -15.79601,5.65692 -7.04515,-1.80744 -11.22897,-6.59682 -9.83857,-11.8729 1.29708,-4.92198 9.49781,-6.73035 15.79601,-5.65691 7.13695,1.21638 12.68033,7.36054 9.83857,11.87289 z"
       style="fill:#ffffff;fill-opacity:1;stroke:#d6a12d;stroke-width:1.01906955;stroke-linecap:butt;stroke-miterlimit:4;stroke-dasharray:none;stroke-opacity:1" />
  </g>
</svg>
