<?xml version="1.0" encoding="UTF-8" standalone="no"?>
<!-- Created with Inkscape (http://www.inkscape.org/) -->

<svg
   xmlns:dc="http://purl.org/dc/elements/1.1/"
   xmlns:cc="http://creativecommons.org/ns#"
   xmlns:rdf="http://www.w3.org/1999/02/22-rdf-syntax-ns#"
   xmlns:svg="http://www.w3.org/2000/svg"
   xmlns="http://www.w3.org/2000/svg"
   xmlns:sodipodi="http://sodipodi.sourceforge.net/DTD/sodipodi-0.dtd"
   xmlns:inkscape="http://www.inkscape.org/namespaces/inkscape"
   width="210mm"
   height="297mm"
   viewBox="0 0 744.09448819 1052.3622047"
   id="svg2"
   version="1.1"
   inkscape:version="0.91 r13725"
   sodipodi:docname="rabbit1.svg">
  <defs
     id="defs4" />
  <sodipodi:namedview
     id="base"
     pagecolor="#000000"
     bordercolor="#666666"
     borderopacity="1.0"
     inkscape:pageopacity="0"
     inkscape:pageshadow="2"
     inkscape:zoom="1.4"
     inkscape:cx="454.06598"
     inkscape:cy="755.79351"
     inkscape:document-units="px"
     inkscape:current-layer="layer1"
     showgrid="false"
     inkscape:window-width="1912"
     inkscape:window-height="1056"
     inkscape:window-x="0"
     inkscape:window-y="0"
     inkscape:window-maximized="0"
     inkscape:snap-global="false" />
  <metadata
     id="metadata7">
    <rdf:RDF>
      <cc:Work
         rdf:about="">
        <dc:format>image/svg+xml</dc:format>
        <dc:type
           rdf:resource="http://purl.org/dc/dcmitype/StillImage" />
        <dc:title></dc:title>
      </cc:Work>
    </rdf:RDF>
  </metadata>
  <g
     inkscape:label="Layer 1"
     inkscape:groupmode="layer"
     id="layer1"
     style="display:inline">
    <path
       style="display:inline;fill:#4a2100;fill-opacity:1;fill-rule:evenodd;stroke:#d6a12d;stroke-width:1px;stroke-linecap:butt;stroke-linejoin:miter;stroke-opacity:1"
       d="m 426.88198,303.96101 c -2.89367,-4.79083 -10.33346,-13.86667 -15.96333,-14.12062 -21.17099,-0.95498 -47.58977,1.92654 -59.01564,6.29937 -14.46431,5.53568 -26.28259,16.69476 -30.68364,29.51288 -8.01719,23.35015 -5.45528,48.83169 17.37218,50.89067 12.31792,1.11104 23.01559,1.89032 32.83702,-3.82396"
       id="path5414"
       inkscape:connector-curvature="0"
       sodipodi:nodetypes="cssssc" />
    <path
       style="fill:#4a2100;fill-opacity:1;fill-rule:evenodd;stroke:#d6a12d;stroke-width:1px;stroke-linecap:butt;stroke-linejoin:miter;stroke-opacity:1"
       d="m 422.4963,299.79855 12.87945,16.66752 c 1.35492,1.75342 -8.40176,12.98443 -13.17658,20.40926 -10.58942,16.46652 -21.48254,33.38137 -22.17876,33.38137 -1.01015,0 -18.43529,1.51523 -16.66752,-3.28299 1.76777,-4.79823 7.57615,-12.62691 9.09137,-14.64722 1.51523,-2.0203 6.566,-19.95051 6.566,-19.95051 0,0 -7.32361,18.56155 -10.73287,22.60216 -3.40927,4.04061 -7.39078,-1.50561 -7.39078,-1.50561 l -6.06518,-34.50318"
       id="path5418"
       inkscape:connector-curvature="0"
       sodipodi:nodetypes="cssssccscc" />
    <path
       style="display:inline;fill:#4a2100;fill-opacity:1;fill-rule:evenodd;stroke:#d6a12d;stroke-width:1px;stroke-linecap:butt;stroke-linejoin:miter;stroke-opacity:1"
       d="m 357.67857,320.93363 c 15.71429,-10.89286 36.78572,-12.85715 37.32143,6.07143 0.53572,18.92857 -1.42857,29.10714 -11.25,35.89286 21.96428,-3.21429 21.78572,2.32143 22.67857,7.67857 -3.34352,5.05409 -24.11195,7.91055 -45.89285,8.75 -0.71141,-8.89268 9.83116,-14.07478 15.17857,-21.60714"
       id="path5412"
       inkscape:connector-curvature="0"
       sodipodi:nodetypes="cscccc" />
    <path
       style="fill:#4a2100;fill-opacity:1;fill-rule:evenodd;stroke:#d6a12d;stroke-width:1px;stroke-linecap:butt;stroke-linejoin:miter;stroke-opacity:1"
       d="m 421.35988,305.7332 c 9.34391,12.37437 11.11168,16.28871 15.9099,16.16244 4.79823,-0.12626 12.75318,0.50508 15.27856,-1.76776 2.52538,-2.27285 13.76333,1.13642 16.79379,-6.81853 3.03045,-7.95495 -0.37881,-12.87945 -4.29315,-17.1726 -3.91434,-4.29314 -6.9448,-8.90196 -11.11168,-11.93242 -4.16688,-3.03046 -15.9099,-6.25032 -18.56155,-7.63928 -2.65165,-1.38896 -5.80838,-8.20749 -7.44988,-11.23795 -1.6415,-3.03046 -3.29722,-9.14367 -9.1056,-14.3207 -5.80838,-5.17704 -11.60252,-8.28146 -14.75925,-5.75608 -3.15673,2.52538 0.83683,18.78346 2.35206,22.44526 1.51523,3.6618 5.9817,11.39485 6.99185,13.03635 1.01015,1.6415 4.04061,6.18718 1.01015,6.69226 -3.03046,0.50507 -4.67195,2.14657 -3.15672,3.53553 1.51522,1.38896 7.70241,10.85914 10.10152,14.77348 z"
       id="path4306"
       inkscape:connector-curvature="0"
       sodipodi:nodetypes="csssssssssssssc" />
    <circle
       style="fill:#ffffff;fill-opacity:1;stroke:none;stroke-width:10;stroke-linecap:butt;stroke-miterlimit:4;stroke-dasharray:none;stroke-opacity:1"
       id="path4308"
       cx="446.80307"
       cy="294.68463"
       r="4.6088209" />
    <path
       transform="matrix(0.98104401,-0.19378507,0.19378507,0.98104401,0,0)"
       style="fill:#ffffff;fill-opacity:1;stroke:#d6a12d;stroke-width:1;stroke-linecap:butt;stroke-miterlimit:4;stroke-dasharray:none;stroke-opacity:1"
       d="m 251.96352,416.37567 c -0.78942,6.50213 -3.282,13.03517 -9.09137,12.87945 -5.01923,-0.13454 -8.82752,-5.25915 -9.09138,-12.87945 -0.24615,-7.10886 4.72508,-12.26341 9.09138,-12.87944 4.94776,-0.69807 9.94867,5.81817 9.09137,12.87944 z"
       id="path5520"
       inkscape:connector-curvature="0"
       sodipodi:nodetypes="sssss" />
  </g>
</svg>
