<?xml version="1.0" encoding="UTF-8" standalone="no"?>
<!-- Created with Inkscape (http://www.inkscape.org/) -->

<svg
   xmlns:dc="http://purl.org/dc/elements/1.1/"
   xmlns:cc="http://creativecommons.org/ns#"
   xmlns:rdf="http://www.w3.org/1999/02/22-rdf-syntax-ns#"
   xmlns:svg="http://www.w3.org/2000/svg"
   xmlns="http://www.w3.org/2000/svg"
   xmlns:sodipodi="http://sodipodi.sourceforge.net/DTD/sodipodi-0.dtd"
   xmlns:inkscape="http://www.inkscape.org/namespaces/inkscape"
   width="210mm"
   height="297mm"
   viewBox="0 0 744.09448819 1052.3622047"
   id="svg2"
   version="1.1"
   inkscape:version="0.91 r13725"
   sodipodi:docname="turtle2.svg">
  <defs
     id="defs4" />
  <sodipodi:namedview
     id="base"
     pagecolor="#000000"
     bordercolor="#666666"
     borderopacity="1.0"
     inkscape:pageopacity="0"
     inkscape:pageshadow="2"
     inkscape:zoom="2.8"
     inkscape:cx="268.75115"
     inkscape:cy="910.24787"
     inkscape:document-units="px"
     inkscape:current-layer="layer1"
     showgrid="false"
     inkscape:window-width="1912"
     inkscape:window-height="1056"
     inkscape:window-x="0"
     inkscape:window-y="0"
     inkscape:window-maximized="0" />
  <metadata
     id="metadata7">
    <rdf:RDF>
      <cc:Work
         rdf:about="">
        <dc:format>image/svg+xml</dc:format>
        <dc:type
           rdf:resource="http://purl.org/dc/dcmitype/StillImage" />
        <dc:title></dc:title>
      </cc:Work>
    </rdf:RDF>
  </metadata>
  <g
     inkscape:label="Layer 1"
     inkscape:groupmode="layer"
     id="layer1">
    <path
       inkscape:connector-curvature="0"
       id="path4156"
       d="m 374.93558,205.21935 c -18.21429,-2.85714 -42.5,-0.71429 -46.42857,1.07143 -3.92857,1.78571 -19.28571,-25.35714 -19.28571,-25.35714"
       style="fill:none;fill-rule:evenodd;stroke:#d6a12d;stroke-width:10;stroke-linecap:butt;stroke-linejoin:miter;stroke-miterlimit:4;stroke-dasharray:none;stroke-opacity:1"
       sodipodi:nodetypes="csc" />
    <path
       style="fill:none;fill-rule:evenodd;stroke:#d6a12d;stroke-width:10;stroke-linecap:butt;stroke-linejoin:miter;stroke-miterlimit:4;stroke-dasharray:none;stroke-opacity:1"
       d="m 84.999997,208.79078 c 18.214293,-2.85714 42.500003,-0.71429 46.428573,1.07143 3.92857,1.78571 24.28571,-25.35714 24.28571,-25.35714"
       id="path4152"
       inkscape:connector-curvature="0"
       sodipodi:nodetypes="csc" />
    <path
       style="fill:#004a00;fill-rule:evenodd;stroke:#00ff00;stroke-width:1px;stroke-linecap:butt;stroke-linejoin:miter;stroke-opacity:1;fill-opacity:1"
       d="m 100.70009,185.93363 c 20.71428,-83.57143 74.28571,-93.571426 147.85714,-92.857141 73.57143,0.714286 108.57143,48.571431 111.42857,85.000001 -75.2003,20.69552 -170.07475,21.70022 -259.28571,7.85714 z"
       id="path4136"
       inkscape:connector-curvature="0"
       sodipodi:nodetypes="cscc" />
    <path
       style="fill:#4a2100;fill-opacity:1;fill-rule:evenodd;stroke:#d6a12d;stroke-width:1.16643274px;stroke-linecap:butt;stroke-linejoin:miter;stroke-opacity:1"
       d="m 317.97484,121.2445 c 39.15881,-10.41458 36.00195,-9.5794 40.16779,-23.743232 4.16583,-14.163825 16.64089,-20.214692 31.24374,-20.412572 15.63852,-0.211914 21.40448,10.992407 23.74136,21.354023 1.50731,6.683301 -5.72182,10.221931 -10.78542,12.835391 -13.08801,6.75508 -19.22828,3.17933 -29.33662,26.24273 -5.45455,12.44518 -25.66174,26.42342 -41.90848,26.00684 -16.24674,-0.41658 -13.12237,-42.28318 -13.12237,-42.28318 z"
       id="path4138"
       inkscape:connector-curvature="0"
       sodipodi:nodetypes="cssssssc" />
    <circle
       style="fill:#ffffff;fill-opacity:1;stroke:none;stroke-opacity:1"
       id="path4140"
       cx="385.69046"
       cy="91.353828"
       r="3.8293936" />
  </g>
</svg>
