<?xml version="1.0" encoding="UTF-8" standalone="no"?>
<!-- Created with Inkscape (http://www.inkscape.org/) -->

<svg
   xmlns:dc="http://purl.org/dc/elements/1.1/"
   xmlns:cc="http://creativecommons.org/ns#"
   xmlns:rdf="http://www.w3.org/1999/02/22-rdf-syntax-ns#"
   xmlns:svg="http://www.w3.org/2000/svg"
   xmlns="http://www.w3.org/2000/svg"
   xmlns:sodipodi="http://sodipodi.sourceforge.net/DTD/sodipodi-0.dtd"
   xmlns:inkscape="http://www.inkscape.org/namespaces/inkscape"
   width="210mm"
   height="297mm"
   viewBox="0 0 744.09448819 1052.3622047"
   id="svg7630"
   version="1.1"
   inkscape:version="0.91 r13725"
   sodipodi:docname="buses_inf.svg">
  <defs
     id="defs7632" />
  <sodipodi:namedview
     id="base"
     pagecolor="#ffffff"
     bordercolor="#666666"
     borderopacity="1.0"
     inkscape:pageopacity="0.0"
     inkscape:pageshadow="2"
     inkscape:zoom="0.98994949"
     inkscape:cx="253.30992"
     inkscape:cy="864.10081"
     inkscape:document-units="px"
     inkscape:current-layer="layer1"
     showgrid="false"
     inkscape:window-width="1591"
     inkscape:window-height="645"
     inkscape:window-x="321"
     inkscape:window-y="411"
     inkscape:window-maximized="0" />
  <metadata
     id="metadata7635">
    <rdf:RDF>
      <cc:Work
         rdf:about="">
        <dc:format>image/svg+xml</dc:format>
        <dc:type
           rdf:resource="http://purl.org/dc/dcmitype/StillImage" />
        <dc:title></dc:title>
      </cc:Work>
    </rdf:RDF>
  </metadata>
  <g
     inkscape:label="Layer 1"
     inkscape:groupmode="layer"
     id="layer1">
    <path
       style="fill:#000000;stroke:none;stroke-opacity:1"
       d="m 326.05187,178.51424 c -0.66979,0.0149 -1.15514,0.20593 -1.53516,0.60351 -0.12139,0.12697 -0.46406,0.23926 -0.95507,0.31446 -0.54731,0.0838 -0.87843,0.20147 -1.16602,0.41406 -0.22112,0.16344 -0.46196,0.29973 -0.53516,0.30273 -0.19406,0.009 -0.97717,0.58293 -1.04687,0.76758 -0.0327,0.0867 -0.14369,0.16297 -0.2461,0.16797 -0.1024,0.005 -0.27841,0.0965 -0.39257,0.20508 -0.13031,0.12393 -0.4808,0.23543 -0.93946,0.29883 -0.40183,0.0555 -0.92737,0.19746 -1.16797,0.3164 -0.24055,0.11893 -0.73286,0.36694 -1.09375,0.55078 -0.41351,0.21065 -1.10122,0.42393 -1.85937,0.57618 -0.66162,0.13287 -1.2802,0.31424 -1.375,0.40234 -0.0948,0.0881 -0.47631,0.20572 -0.84766,0.26172 -0.37135,0.056 -0.6738,0.14 -0.67383,0.1875 1e-5,0.12173 -0.26866,0.20498 -1.20703,0.37695 -2.76674,0.50705 -3.47729,0.67463 -3.71484,0.87696 -0.0902,0.0768 -0.45942,0.23926 -0.82031,0.35937 -0.36087,0.12011 -0.74124,0.26858 -0.84571,0.33008 -0.10444,0.0615 -0.26095,0.11514 -0.34765,0.11914 -0.0867,0.004 -0.24275,0.0954 -0.3457,0.20312 -0.10305,0.10773 -0.2569,0.20821 -0.3418,0.22461 -0.0849,0.0164 -0.26517,0.10888 -0.40235,0.20508 -0.13721,0.0962 -0.47904,0.22069 -0.75781,0.27539 -0.27879,0.0547 -0.56341,0.16896 -0.63281,0.25586 -0.0694,0.0869 -0.23378,0.16392 -0.36523,0.16992 -0.32269,0.0149 -0.63805,0.27481 -0.68165,0.5625 -0.0308,0.20287 0.0189,0.23395 0.34766,0.21875 0.21008,-0.01 0.38086,-0.0636 0.38086,-0.11914 0,-0.0555 0.18464,-0.16504 0.41016,-0.24414 0.2256,-0.0791 0.58248,-0.21799 0.79297,-0.30859 0.21053,-0.0906 0.67813,-0.2882 1.03906,-0.43945 0.36089,-0.15128 0.80395,-0.34223 0.98437,-0.42383 0.18047,-0.0816 0.525,-0.23714 0.76563,-0.34571 0.24056,-0.10857 0.74474,-0.25878 1.12109,-0.33398 0.37637,-0.0752 0.73272,-0.16823 0.79102,-0.20703 0.0584,-0.0388 0.748,-0.0997 1.53125,-0.13477 0.93645,-0.0417 1.42385,-0.10311 1.42382,-0.17968 0,-0.0775 0.46781,-0.13096 1.39454,-0.16016 0.76689,-0.0242 2.00791,-0.10098 2.75976,-0.17188 0.75187,-0.0709 2.25328,-0.19669 3.33594,-0.27929 3.93317,-0.30004 4.67679,-0.37019 4.90625,-0.45899 0.12851,-0.0498 0.67089,-0.0993 1.20508,-0.11133 0.5342,-0.012 1.03217,-0.0744 1.10547,-0.13867 0.21603,-0.18972 1.12723,-0.31804 1.29882,-0.18359 0.0834,0.0652 0.21799,0.0906 0.30079,0.0566 0.0828,-0.0339 1.06106,-0.12678 2.17382,-0.20508 1.11271,-0.0784 2.78648,-0.25874 3.71875,-0.40234 1.82356,-0.28092 2.11612,-0.31343 2.78907,-0.29883 3.22897,0.0702 3.61356,0.10031 3.83398,0.28711 0.12414,0.10523 0.29737,0.18759 0.38477,0.18359 0.23702,-0.0109 0.97461,0.48735 0.97461,0.65821 0,0.0816 0.0739,0.17272 0.16406,0.20312 0.20959,0.0708 0.21636,0.38844 0.008,0.39844 -0.0868,0.004 -0.22629,-0.0856 -0.30859,-0.19922 -0.0823,-0.11366 -0.28165,-0.25264 -0.44336,-0.30664 -0.1617,-0.054 -0.29492,-0.14247 -0.29492,-0.19727 0,-0.0548 -0.22153,-0.12229 -0.49219,-0.15039 -0.27066,-0.0281 -0.49219,-0.0978 -0.49219,-0.15429 0,-0.13417 -0.68921,-0.10102 -0.82422,0.0391 -0.0571,0.0593 -0.74347,0.16779 -1.52539,0.24219 -0.78192,0.0744 -1.54496,0.18569 -1.69531,0.24609 -0.15037,0.0604 -1.99637,0.21533 -4.10156,0.3457 -2.10517,0.13039 -4.32037,0.30783 -4.92188,0.39453 -2.39048,0.34464 -2.73808,0.40661 -2.89062,0.50977 -0.0872,0.059 -1.24404,0.16969 -2.57032,0.24609 -1.32635,0.0764 -2.53519,0.19116 -2.68554,0.25586 -0.15037,0.0647 -0.51957,0.11011 -0.82032,0.0996 -0.60162,-0.021 -0.57238,-0.0232 -1.58984,0.0684 -0.39364,0.0355 -0.76768,0.0991 -0.83008,0.14063 -0.10459,0.0695 -1.32699,0.22187 -2.94531,0.36718 -0.36454,0.0327 -0.70948,0.0903 -0.76758,0.12891 -0.058,0.0386 -0.61285,0.12365 -1.23242,0.18945 -0.61955,0.0658 -1.2099,0.16686 -1.31055,0.22266 -0.18024,0.1 -2.10672,0.52868 -2.86914,0.63867 -0.21476,0.031 -0.51013,0.10532 -0.65625,0.16602 -0.14612,0.0607 -1.7064,0.16868 -3.46679,0.23828 -2.26028,0.0894 -3.41561,0.17807 -3.93555,0.30273 -0.40494,0.0971 -0.99249,0.19013 -1.30469,0.20703 -0.31224,0.0166 -0.59756,0.0807 -0.63476,0.14258 -0.0371,0.0619 -0.25067,0.12066 -0.47266,0.13086 -0.22203,0.0101 -0.8946,0.20761 -1.49609,0.43945 -0.60148,0.23184 -1.32929,0.49354 -1.61719,0.58204 -0.28786,0.0885 -0.73093,0.33561 -0.98438,0.54882 -0.25341,0.21321 -0.54475,0.39344 -0.64648,0.39844 -0.10169,0.005 -0.21591,0.0602 -0.25391,0.12305 -0.0378,0.0634 -0.11523,0.0862 -0.17383,0.0527 -0.0586,-0.0335 -0.16568,-0.01 -0.23828,0.0508 -0.21623,0.18132 -0.95193,0.33343 -1.88281,0.39063 -1.25132,0.077 -2.58371,0.33242 -3.71875,0.71289 -1.80663,0.60563 -2.50474,0.82238 -3.77148,1.17187 -1.38734,0.38276 -1.86565,0.60697 -2.67969,1.25391 -0.30073,0.239 -0.69451,0.51801 -0.875,0.61914 -0.42781,0.23975 -3.13659,0.85962 -4.29883,0.98438 -0.49984,0.0537 -1.13986,0.18358 -1.42187,0.28711 -1.13705,0.41739 -2.03931,0.69828 -2.27149,0.70898 -0.13491,0.006 -0.50699,0.11897 -0.82812,0.25 -0.32111,0.13104 -0.71053,0.27075 -0.86524,0.31055 -0.15476,0.0398 -0.45016,0.19325 -0.65625,0.34179 -0.20612,0.14854 -0.67036,0.38871 -1.03125,0.53321 -0.65477,0.26217 -1.14566,0.35233 -4.75781,0.86523 -1.05255,0.14945 -1.93865,0.30887 -1.96875,0.35547 -0.0301,0.0466 -0.25107,0.097 -0.49219,0.11133 -0.24111,0.0141 -0.58568,0.10881 -0.76562,0.21094 -0.17993,0.10211 -0.4028,0.18836 -0.4961,0.19336 -0.0932,0.005 -0.21633,0.0512 -0.27343,0.10351 -0.13689,0.12537 -0.86698,0.36314 -1.41993,0.46094 -0.24277,0.043 -0.67991,0.20847 -0.9707,0.36914 -0.29087,0.16066 -0.74442,0.36518 -1.00781,0.45508 -0.26335,0.0899 -0.47852,0.203 -0.47852,0.25 0,0.047 -0.0903,0.0888 -0.20117,0.0937 -0.11084,0.005 -0.93545,0.41274 -1.83203,0.90429 -0.35594,0.19514 -0.6679,0.35461 -0.95703,0.50196 -1.4664,0.50553 -4.21823,1.47498 -7.55469,2.87109 -2.2145,0.92663 -4.40741,1.93898 -6.0293,2.91211 -0.81094,0.48657 -1.47821,0.95881 -1.95117,1.43945 -0.47295,0.48065 -0.81896,1.03753 -0.65234,1.64844 0.0555,0.20372 0.23288,0.35067 0.44336,0.36719 14.07124,1.07754 26.13453,2.082 37.60937,3.08398 0.038,1.36045 0.97405,2.54102 2.24219,2.54102 1.14573,0 2.02367,-0.96325 2.21094,-2.15235 8.8193,0.78343 17.27385,1.57674 25.66015,2.39649 -2e-5,0.005 -0.002,0.0103 -0.002,0.0156 0,0.83582 0.25661,1.60238 0.69922,2.17969 0.4426,0.57731 1.09637,0.97266 1.83398,0.97266 0.73761,0 1.39334,-0.39535 1.83594,-0.97266 0.35353,-0.46112 0.58044,-1.04604 0.66016,-1.6875 6.69856,0.0688 11.80814,1.11117 17.91835,1.54474 1.00446,-0.0428 2.20722,-0.2224 3.66491,-0.48242 2.91538,-0.52004 6.45923,-1.31998 8.9823,-2.0769 l 0.59854,-0.22568 c 0.56578,-0.27448 1.0853,-0.58889 1.62109,-1.03516 0.37691,-0.3139 0.68555,-0.60262 0.68555,-0.64062 0,-0.038 0.0987,-0.18003 0.21875,-0.31446 0.1201,-0.13443 0.29382,-0.47009 0.38672,-0.74804 0.16628,-0.49734 0.16604,-0.64581 -0.0156,-2.84766 -0.0824,-0.99803 -0.23812,-1.87263 -0.39453,-2.22461 -0.2926,-0.65808 -0.32101,-1.1718 -0.0801,-1.42383 0.11704,-0.12245 0.29131,-0.22647 0.38671,-0.23047 0.17731,-0.008 0.94326,-0.5438 1.49024,-1.04297 0.18296,-0.16696 0.30469,-0.38944 0.30469,-0.55468 0,-0.27451 -0.39307,-1.48492 -0.54688,-1.68555 -0.0446,-0.0581 -0.11525,-0.36705 -0.15625,-0.6875 -0.041,-0.32044 -0.14171,-0.78407 -0.22461,-1.0293 -0.0829,-0.24524 -0.16605,-0.6135 -0.18555,-0.81836 -0.0325,-0.34274 -0.005,-0.38202 0.33789,-0.48828 0.43012,-0.13326 1.04969,-0.60498 1.15821,-0.88086 0.33851,-0.86051 0.37221,-1.31191 0.1582,-2.1582 -0.26218,-1.0415 -0.26218,-1.09466 0.004,-1.39258 0.11868,-0.13282 0.29422,-0.48264 0.39062,-0.77734 0.14978,-0.45794 0.15697,-0.65814 0.0469,-1.37891 -0.0709,-0.46381 -0.27862,-1.2426 -0.46094,-1.73047 l -0.33203,-0.88672 0.28515,-0.23632 c 0.15616,-0.13003 0.38025,-0.37901 0.5,-0.55274 0.21804,-0.31581 0.21919,-0.31527 -0.006,-0.75976 -0.12381,-0.24453 -0.25969,-0.44341 -0.30079,-0.44141 -0.0411,0.002 -0.0857,-0.14945 -0.0996,-0.33594 -0.0143,-0.18648 -0.0724,-0.4223 -0.12891,-0.52539 -0.12979,-0.2366 -0.0428,-0.3286 0.32812,-0.3457 0.38447,-0.0178 0.69932,-0.39307 0.69532,-0.83008 -0.003,-0.34714 -0.21996,-0.7201 -0.91407,-1.56445 -0.31629,-0.38474 -0.34101,-0.45917 -0.20117,-0.60547 0.1268,-0.13264 0.14147,-0.31514 0.0723,-0.88672 -0.12055,-0.99566 -0.1466,-1.05075 -0.69727,-1.47656 -0.26831,-0.20746 -0.48828,-0.44244 -0.48828,-0.52344 0,-0.21088 -1.41286,-1.5172 -1.80859,-1.67188 -0.18289,-0.0715 -0.79821,-0.11922 -1.36719,-0.10742 -0.56895,0.0119 -1.08885,0.005 -1.15625,-0.0156 -0.0772,-0.0234 -0.10246,-0.21788 -0.0684,-0.52344 0.0484,-0.43091 0.0135,-0.52902 -0.30664,-0.88086 -0.43332,-0.47615 -0.74024,-0.56568 -1.40625,-0.40625 -0.27622,0.0661 -0.95818,0.17218 -1.51563,0.23438 l -1.01367,0.11132 -0.0605,-0.30078 c -0.0338,-0.16609 -0.179,-0.43237 -0.32227,-0.59179 -0.25068,-0.27896 -0.30387,-0.28906 -1.38672,-0.25586 -0.61884,0.019 -1.28425,0.079 -1.47851,0.13281 -0.32256,0.0893 -0.40441,0.0501 -0.95508,-0.44531 l -0.60352,-0.54297 -0.92578,0.10156 c -0.82494,0.0896 -0.93996,0.0786 -1.06641,-0.10156 -0.11059,-0.15754 -0.28528,-0.1989 -0.79687,-0.1875 z m 0.0254,0.45703 c 0.13535,-0.007 0.24609,0.0375 0.24609,0.0977 0,0.0601 -0.11074,0.11409 -0.24609,0.12109 -0.13531,0.007 -0.35488,0.0473 -0.49023,0.0898 -0.13531,0.0425 -0.2461,0.0289 -0.2461,-0.0312 0,-0.12167 0.35934,-0.25744 0.73633,-0.27734 z m 2.23438,0.48633 c 0.31656,0.002 0.52037,0.066 0.62695,0.18945 0.24737,0.2867 -0.16183,0.37736 -2.42578,0.54297 l 0,0.002 c -1.24916,0.0914 -2.30561,0.18298 -2.34961,0.20508 -0.044,0.0217 -0.3016,0.0198 -0.57227,-0.006 -0.5816,-0.0552 -0.62253,-0.0436 1.03906,-0.3125 0.72175,-0.11684 1.79459,-0.31779 2.38477,-0.44531 0.55183,-0.11921 0.98028,-0.17782 1.29688,-0.17578 z m 3.64453,0.875 c 0.57999,0.0202 0.76562,0.0652 0.76562,0.18945 0,0.12037 -0.18337,0.19259 -0.6875,0.27148 -0.37788,0.0591 -0.77171,0.1287 -0.875,0.1543 -0.34534,0.0854 -4.121,0.10429 -4.31641,0.0215 -0.11862,-0.0503 -0.25481,-0.0279 -0.35351,0.0586 -0.12482,0.1094 -0.44296,0.12707 -1.43164,0.0762 -0.96284,-0.0497 -1.35534,-0.031 -1.62305,0.0781 -0.45706,0.18638 -1.42969,0.0734 -1.42969,-0.16602 0,-0.13746 0.20588,-0.16605 1.3125,-0.18555 0.72176,-0.0127 1.35892,0.0184 1.41602,0.0703 0.13942,0.12656 0.57771,0.0994 0.66211,-0.041 0.0421,-0.07 1.07737,-0.15727 2.74609,-0.23437 1.47404,-0.0681 2.76399,-0.16886 2.86524,-0.22266 0.10132,-0.0538 0.52819,-0.085 0.94922,-0.0703 z m 4.75,0.64843 c 0.0649,0.0155 0.14182,0.052 0.22265,0.10938 0.24953,0.17704 0.25818,0.20883 0.0996,0.40039 -0.0945,0.11423 -0.20228,0.29136 -0.23828,0.39453 -0.1037,0.29808 -0.78603,0.46838 -2.37305,0.58789 -1.34407,0.1012 -2.87891,0.25206 -4.32031,0.42578 -0.76926,0.0927 -2.75705,0.26256 -4.81055,0.41211 -0.96232,0.0701 -1.89061,0.19033 -2.0625,0.26563 -0.1719,0.0754 -0.49189,0.13862 -0.71093,0.14062 -0.21911,0.003 -0.86605,0.0577 -1.4375,0.1211 -1.62616,0.1804 -4.27247,0.34002 -4.32227,0.26172 -0.0564,-0.0887 1.42354,-0.47233 2.29688,-0.59571 0.35968,-0.0508 0.75349,-0.16179 0.875,-0.24609 0.15653,-0.10865 0.60334,-0.16295 1.5332,-0.18945 2.06406,-0.0589 2.3718,-0.44341 0.37695,-0.47071 -0.93481,-0.0128 -1.33373,0.0341 -2.1875,0.25977 -0.57414,0.15182 -1.15074,0.25311 -1.2832,0.22461 -0.13826,-0.0298 -0.35886,0.0312 -0.51758,0.14258 -0.15206,0.10663 -0.60731,0.23836 -1.01172,0.29296 -0.40442,0.0546 -0.78921,0.14212 -0.85351,0.19532 -0.0642,0.0532 -0.50734,0.20966 -0.98438,0.34765 -0.47708,0.13797 -0.95337,0.29049 -1.05859,0.33789 -0.11712,0.0527 -0.19141,0.035 -0.19141,-0.043 0,-0.0702 -0.0502,-0.0933 -0.11133,-0.0527 -0.0615,0.0406 -0.0853,0.11391 -0.0547,0.16211 0.0307,0.0482 -0.0545,0.11579 -0.18946,0.15039 -0.88629,0.22733 -1.57444,0.0573 -0.82226,-0.20312 0.25756,-0.0892 0.56522,-0.20341 0.68554,-0.25391 0.5249,-0.2204 1.02543,-0.36604 1.58594,-0.46094 1.29387,-0.21908 2.13147,-0.49943 3.23242,-1.08398 l 1.14649,-0.60938 1.17383,-0.0547 c 0.64574,-0.0308 1.83838,-0.0548 2.65039,-0.0508 1.08699,0.005 1.72185,-0.0468 2.40625,-0.19531 0.51127,-0.11099 1.14929,-0.19836 1.41992,-0.19336 1.37167,0.0233 1.97997,0.0602 2.08984,0.12305 0.0667,0.0381 0.41692,0.075 0.7793,0.082 0.36241,0.007 0.69869,0.0354 0.74609,0.0625 0.0474,0.0271 0.11003,-0.0148 0.14063,-0.0918 0.0422,-0.10605 0.0842,-0.10194 0.16992,0.0176 0.0988,0.13797 0.15512,0.12978 0.45703,-0.0625 0.28585,-0.18207 0.36261,-0.19306 0.44141,-0.0723 0.0668,0.1023 0.0957,0.10386 0.0957,0.01 0.002,-0.19948 1.28208,-0.22327 1.35938,-0.0254 0.0893,0.22862 0.71865,0.16562 0.72265,-0.0723 10e-4,-0.1639 0.0172,-0.16938 0.10938,-0.0332 0.0715,0.1056 0.13495,0.12042 0.18945,0.041 0.13723,-0.20004 1.29251,-0.47248 1.80664,-0.42578 0.26485,0.0241 0.52733,-0.004 0.58203,-0.0606 0.0297,-0.0309 0.0816,-0.037 0.14649,-0.0215 z m -20.23243,3.14844 c 0.038,-1.9e-4 0.0697,0.008 0.0879,0.0254 0.0363,0.0347 -0.0292,0.0638 -0.14454,0.0645 -0.1273,7e-4 -0.15175,-0.0235 -0.0644,-0.0625 0.0395,-0.0176 0.0831,-0.0272 0.12109,-0.0274 z m -1.30468,0.26563 c 0.12023,-0.006 0.21875,0.008 0.21875,0.0312 0,0.023 -0.0985,0.0724 -0.21875,0.10937 -0.12033,0.037 -0.21875,0.0233 -0.21875,-0.0312 0,-0.0545 0.0985,-0.10337 0.21875,-0.10937 z m 24.40819,0.26172 c 0.88557,0.006 1.83781,0.6395 2.67578,1.79297 0.21028,0.28946 0.40891,0.68862 0.44141,0.88671 0.0418,0.25558 0.13135,0.37466 0.30469,0.41016 0.14748,0.0302 0.34744,0.2454 0.50585,0.54297 l 0.26172,0.49219 -0.24609,0.17773 c -0.15954,0.11546 -0.24609,0.29003 -0.24609,0.49414 0,0.17311 -0.0403,0.31636 -0.0899,0.31836 -0.12278,0.006 -0.50758,-0.40741 -0.67773,-0.72852 -0.0765,-0.14428 -0.37799,-0.55606 -0.66992,-0.91406 -0.29191,-0.358 -0.53125,-0.7107 -0.53125,-0.7832 0,-0.2506 -0.80489,-0.94312 -1.41211,-1.21484 -0.55605,-0.24894 -0.70481,-0.26682 -1.69727,-0.19922 -0.59832,0.0408 -1.13892,0.12635 -1.19922,0.18945 -0.0603,0.0631 -0.40723,0.12773 -0.77148,0.14453 -0.36432,0.0168 -0.82134,0.0837 -1.01563,0.14844 -0.19426,0.0647 -1.0296,0.16164 -1.85742,0.21484 -0.82782,0.0532 -1.55503,0.12667 -1.61523,0.16406 -0.0602,0.0374 -0.25706,0.0809 -0.4375,0.0957 -0.91592,0.0751 -2.30373,0.30282 -2.35743,0.38672 -0.0335,0.0524 -1.09189,0.17097 -2.35156,0.26367 -2.24093,0.16488 -4.24653,0.36563 -7.10156,0.71289 -0.78194,0.0951 -2.30798,0.23179 -3.39063,0.30469 -1.08264,0.0729 -2.55949,0.21605 -3.28125,0.3164 -0.72175,0.10035 -1.53205,0.2122 -1.80273,0.25 -1.49243,0.20817 -1.86735,0.25789 -2.49609,0.33399 -0.37969,0.0459 -0.73161,0.11218 -0.78321,0.14648 -0.0516,0.0342 -1.07091,0.13029 -2.26367,0.21289 -1.19272,0.0826 -2.33223,0.20659 -2.5332,0.27539 -0.50375,0.17253 -2.55496,0.4375 -4.77539,0.61719 -1.02251,0.0827 -2.07895,0.18135 -2.34961,0.21875 -0.54737,0.0757 -0.86422,0.0974 -1.23047,0.0859 -0.13533,-0.004 -0.8471,0.0517 -1.58203,0.125 -0.73498,0.073 -1.41221,0.10912 -1.50391,0.0781 -0.23486,-0.0793 -0.0955,-0.25533 0.21289,-0.26953 0.14185,-0.007 0.48692,-0.1226 0.76758,-0.25586 0.28064,-0.13325 0.61862,-0.24595 0.75195,-0.25195 0.13338,-0.006 0.29056,-0.0537 0.34766,-0.10547 0.0571,-0.0519 0.49733,-0.22596 0.97852,-0.38672 0.48119,-0.16074 0.97347,-0.33748 1.09375,-0.39258 0.20882,-0.0956 1.2715,-0.29122 1.96875,-0.36132 0.18044,-0.0182 0.69533,-0.10456 1.14648,-0.19336 0.91467,-0.18005 1.37699,-0.21778 4.21094,-0.34375 2.18015,-0.0969 3.17792,-0.22851 4.14844,-0.54493 0.35704,-0.11639 0.71537,-0.18962 0.79687,-0.1621 0.0814,0.0275 0.24489,-0.0137 0.36133,-0.0918 0.16582,-0.1115 0.24073,-0.11377 0.3457,-0.0137 0.17957,0.17125 0.59892,0.14332 0.66992,-0.0449 0.0746,-0.19791 0.69695,-0.349 0.94336,-0.22851 0.12433,0.0608 0.23249,0.054 0.30469,-0.0215 0.23081,-0.24146 4.86657,-0.69645 11.0332,-1.08203 1.32989,-0.0832 2.46393,-0.18175 2.51953,-0.21875 0.16106,-0.10696 2.21221,-0.405 3.56055,-0.51758 0.67903,-0.0567 2.75919,-0.20062 4.62305,-0.32031 1.86384,-0.11968 3.56219,-0.27124 3.77344,-0.33593 0.21124,-0.0647 0.98739,-0.17224 1.7246,-0.24024 0.73719,-0.0679 1.37718,-0.13162 1.42188,-0.14062 0.1232,-0.025 0.24849,-0.038 0.375,-0.0371 z m -0.23828,1.92187 c 0.13909,-0.005 0.23526,0.0716 0.40234,0.27734 0.14816,0.18244 0.3157,0.30038 0.3711,0.26368 0.0553,-0.0368 0.0996,-0.0186 0.0996,0.041 0,0.0596 0.0995,0.13702 0.2207,0.16992 0.12124,0.0329 0.39958,0.33066 0.61719,0.66211 0.21757,0.33145 0.43487,0.62645 0.48437,0.65625 0.0496,0.0297 0.15442,0.1962 0.23242,0.3711 0.20219,0.45312 0.77301,1.37751 0.875,1.41601 0.12601,0.0475 0.10446,0.38724 -0.0332,0.53125 -0.0853,0.0893 -0.0642,0.22425 0.0742,0.48243 0.1059,0.19749 0.2056,0.46983 0.2207,0.60351 0.0578,0.50515 -0.44273,0.35806 -0.55859,-0.16406 -0.0394,-0.17757 -0.11231,-0.3465 -0.16211,-0.375 -0.0498,-0.0285 -0.24901,-0.32719 -0.44336,-0.66406 -0.19431,-0.33687 -0.38706,-0.63587 -0.42773,-0.66407 -0.0407,-0.0282 -0.18761,-0.32851 -0.32618,-0.66797 -0.17314,-0.42416 -0.31097,-0.61342 -0.44336,-0.60742 -0.10594,0.005 -0.26049,-0.0679 -0.34179,-0.16211 -0.13222,-0.1532 -0.40212,-0.15111 -2.55469,0.0195 -1.69458,0.13432 -2.49232,0.23808 -2.69727,0.35352 -0.44506,0.25073 -1.79785,0.48771 -2.54297,0.44531 -0.38706,-0.022 -0.82871,0.0195 -1.05078,0.0996 -0.21054,0.076 -0.93631,0.18464 -1.61328,0.24024 -0.83565,0.0686 -1.33854,0.1607 -1.5664,0.28906 -0.2355,0.13266 -0.61937,0.19951 -1.28516,0.22461 -0.52191,0.0197 -1.02308,0.039 -1.11328,0.043 -2.0237,0.0859 -7.23405,0.46088 -8.43945,0.60742 -0.88302,0.10732 -1.72451,0.17218 -1.86915,0.14258 -0.40545,-0.083 -4.82391,0.37691 -5.92968,0.61718 -1.24663,0.27089 -2.47063,0.44469 -4.8125,0.6875 -1.02255,0.10602 -1.93429,0.22583 -2.02539,0.26563 -0.091,0.0398 -0.70646,0.12269 -1.36719,0.18359 -0.66076,0.0609 -1.54573,0.143 -1.9668,0.1836 -0.42103,0.0405 -2.69864,0.19333 -5.0625,0.33984 -2.38892,0.14803 -4.38516,0.31756 -4.49414,0.38086 -0.10777,0.0627 -1.22016,0.2137 -2.4707,0.33594 -1.25047,0.12224 -2.32106,0.25522 -2.38086,0.29492 -0.10185,0.0677 -1.83215,0.28488 -3.68945,0.46289 -0.45108,0.0432 -1.23872,0.13262 -1.75,0.19922 -0.873,0.11368 -0.91635,0.11032 -0.71094,-0.0684 0.47123,-0.40988 1.25873,-0.75205 2.51562,-1.08984 0.72173,-0.19398 1.70442,-0.48995 2.18555,-0.65821 2.42321,-0.84742 2.67135,-0.89911 5.19531,-1.10937 1.89165,-0.15757 3.35428,-0.29683 4.64844,-0.44141 0.30073,-0.0336 1.43297,-0.12467 2.51563,-0.20117 1.08265,-0.0765 2.18832,-0.18709 2.45898,-0.24609 0.27067,-0.059 0.88599,-0.13929 1.36719,-0.17969 0.48115,-0.0403 1.1457,-0.1379 1.47656,-0.2168 0.33082,-0.0789 1.01999,-0.21317 1.53125,-0.29687 0.51122,-0.0837 0.99256,-0.17709 1.06836,-0.20899 0.0758,-0.0318 0.39179,-0.0213 0.70312,0.0234 0.34705,0.0498 0.59051,0.0407 0.62891,-0.0234 0.0345,-0.0575 0.47955,-0.15048 0.99023,-0.20508 0.51066,-0.0546 1.69273,-0.18436 2.625,-0.28906 0.93228,-0.10472 2.5909,-0.27971 3.6875,-0.38867 1.0966,-0.10896 2.03775,-0.22517 2.08985,-0.25977 0.052,-0.0346 1.07436,-0.1345 2.27148,-0.2207 1.19707,-0.0862 2.66805,-0.20628 3.26953,-0.26758 2.02025,-0.20582 3.37804,-0.32731 5.19336,-0.46289 0.99241,-0.0741 1.87554,-0.16372 1.96094,-0.19922 0.0855,-0.0355 0.58032,-0.11127 1.09961,-0.16797 1.32593,-0.1449 1.36326,-0.14978 1.42773,-0.23828 0.0538,-0.0738 2.42185,-0.33988 3.27344,-0.36718 0.22664,-0.007 0.43628,0.0605 0.51758,0.16796 0.11213,0.14812 0.1649,0.15393 0.30274,0.0332 0.0931,-0.0815 0.16796,-0.0963 0.16796,-0.0352 0,0.12858 0.32196,0.21427 0.51954,0.13867 0.0752,-0.0288 0.13671,-0.15157 0.13671,-0.27343 0,-0.18875 0.0533,-0.2166 0.35547,-0.1836 0.19553,0.0214 0.46852,0.0695 0.60742,0.10742 0.20219,0.0551 0.26566,0.0229 0.31446,-0.16601 0.0696,-0.26928 0.2539,-0.32914 0.2539,-0.082 0,0.17803 0.2755,0.21435 0.375,0.0488 0.0337,-0.0561 0.30873,-0.14793 0.60938,-0.20313 0.3006,-0.0552 0.57372,-0.14702 0.60742,-0.20313 0.0337,-0.0561 0.23427,-0.10914 0.44531,-0.11914 0.32532,-0.015 0.37386,0.0141 0.31836,0.19141 -0.0392,0.12533 -0.006,0.22937 0.084,0.25977 0.20062,0.0677 0.44912,-0.10778 0.35742,-0.25196 -0.0427,-0.0671 0.0492,-0.15077 0.21875,-0.20117 0.0601,-0.0178 0.10988,-0.0295 0.15625,-0.0312 z m 0.5332,2.71875 0.26172,0.27539 c 0.25534,0.26644 1.11273,1.68929 1.36328,2.26367 0.0685,0.15702 0.22567,0.31211 0.34961,0.34571 0.22996,0.0624 0.32138,0.48023 0.10742,0.49023 -0.0644,0.003 -0.0398,0.0798 0.0547,0.16992 0.0945,0.0901 0.17188,0.28235 0.17188,0.42774 0,0.29193 0.3012,0.68968 0.51367,0.67969 0.0747,-0.003 0.19432,0.10233 0.26562,0.23437 0.0712,0.13204 0.16253,0.26282 0.20313,0.29102 0.0407,0.0282 0.14903,0.43997 0.24023,0.91406 0.1205,0.62642 0.1359,0.97697 0.0586,1.28515 -0.0585,0.23323 -0.19722,0.47622 -0.3086,0.54102 -0.17787,0.10341 -0.2565,0.01 -0.64844,-0.76562 -0.24546,-0.48573 -0.56244,-1.0305 -0.70507,-1.21094 -0.48319,-0.61118 -1.91407,-2.68705 -1.91407,-2.77735 0,-0.23427 -0.49008,-0.53667 -1.27343,-0.78711 -0.79176,-0.25316 -0.9694,-0.26891 -2.22657,-0.19531 -2.64304,0.15482 -3.28125,0.21494 -3.28125,0.30664 0,0.1101 -0.47713,0.14684 -0.58398,0.0449 -0.041,-0.039 -0.32121,-0.0647 -0.62109,-0.0547 -0.41677,0.0132 -0.54493,0.0574 -0.54493,0.18359 0,0.19359 -0.69494,0.46854 -1.24804,0.49414 -0.20752,0.01 -0.50029,0.0688 -0.65039,0.13281 -0.25644,0.10933 -2.09473,0.29053 -5.37305,0.5293 -0.78194,0.057 -2.1357,0.1896 -3.00781,0.29297 -0.89753,0.10638 -2.72544,0.21059 -4.21094,0.24219 -2.10287,0.0448 -2.83171,0.10004 -3.66406,0.27539 -0.6172,0.13002 -2.12507,0.29592 -3.7168,0.4082 -1.47361,0.10398 -3.51657,0.29506 -4.53906,0.42578 -2.79982,0.35793 -4.29246,0.50427 -6.3418,0.61914 -1.14968,0.0644 -1.94663,0.15664 -2.08789,0.24024 -0.12558,0.0742 -0.33482,0.11198 -0.46484,0.084 -0.12999,-0.028 -0.23633,-0.009 -0.23633,0.043 -1.5e-4,0.0521 -0.71312,0.13519 -1.58399,0.18359 -0.87084,0.0484 -1.67092,0.12944 -1.77734,0.18164 -0.27541,0.13507 -0.45567,0.16008 -2.10742,0.29297 -0.81201,0.0653 -1.61387,0.18021 -1.7832,0.25391 -0.1693,0.0738 -0.49496,0.14184 -0.72266,0.15234 -0.2277,0.0105 -0.55607,0.0711 -0.73047,0.13477 -0.28994,0.10585 -1.2141,0.18804 -6.93359,0.61133 -1.0526,0.0779 -2.16021,0.19446 -2.46094,0.25976 -0.30074,0.0653 -1.25745,0.16265 -2.125,0.21485 -0.86752,0.0523 -1.68118,0.13906 -1.8086,0.19336 -0.21914,0.0935 -1.2418,0.18376 -2.95507,0.25976 -0.97237,0.0431 -1.89435,-0.0218 -1.96875,-0.13867 -0.0816,-0.12834 0.57628,-0.46552 0.9414,-0.48242 0.16834,-0.008 0.41851,-0.0627 0.55664,-0.12305 0.13817,-0.0603 0.47349,-0.18374 0.74414,-0.27344 0.27064,-0.0897 0.54563,-0.20601 0.61133,-0.25781 0.0657,-0.052 0.14373,-0.0697 0.17383,-0.041 0.0301,0.0287 0.44431,-0.0376 0.91992,-0.14648 0.47565,-0.10889 1.33097,-0.278 1.90235,-0.375 0.57142,-0.0971 1.13753,-0.22204 1.25781,-0.27734 0.30297,-0.13927 1.95749,-0.35716 6.125,-0.81055 1.62478,-0.17675 2.73503,-0.32121 3.49805,-0.45313 0.12028,-0.0208 0.83408,-0.096 1.58593,-0.16796 0.75189,-0.072 1.49026,-0.16679 1.64063,-0.20899 0.24281,-0.0682 0.84546,-0.12931 3.22656,-0.33398 0.36087,-0.031 0.71416,-0.0953 0.78516,-0.14258 0.071,-0.0468 0.1558,-0.0459 0.1875,0.004 0.0686,0.10787 0.39617,0.0811 0.59179,-0.0488 0.0767,-0.0509 0.74042,-0.0852 1.47461,-0.0762 0.73427,0.009 1.45898,0.003 1.60938,-0.0117 0.59234,-0.0578 1.66552,-0.17283 3.44336,-0.3711 3.00056,-0.3346 3.68438,-0.41279 4.32031,-0.49609 0.33079,-0.0433 1.34355,-0.13483 2.25,-0.20313 1.08919,-0.0821 1.81266,-0.19014 2.13281,-0.3164 0.2664,-0.10506 0.6813,-0.20079 0.92188,-0.21289 0.24057,-0.0123 0.60979,-0.0751 0.82031,-0.14063 0.43614,-0.13575 3.41212,-0.43672 4.1543,-0.41992 0.82126,0.0186 1.16329,-0.01 3.77343,-0.30859 1.38292,-0.1584 2.54444,-0.2714 2.58204,-0.25 0.0994,0.0569 4.12964,-0.13128 5.3457,-0.25 0.57137,-0.0558 1.35902,-0.16569 1.75,-0.24219 0.39094,-0.0765 1.32627,-0.19352 2.07812,-0.26172 l 1.36719,-0.125 -0.0371,0.55078 c -0.0338,0.49115 -0.0142,0.54806 0.1836,0.53906 0.12177,-0.006 0.32417,-0.1471 0.45117,-0.31445 0.26207,-0.34531 0.80396,-0.72903 1.04687,-0.74023 0.0896,-0.004 0.24901,-0.0566 0.35352,-0.11719 0.34404,-0.19974 1.31718,-0.50568 1.6582,-0.52149 0.21998,-0.0102 0.33594,-0.0694 0.33594,-0.17382 0,-0.11591 0.12588,-0.16294 0.46484,-0.16992 0.25565,-0.005 1.21126,-0.0692 2.125,-0.14258 z m -8.08594,2.64063 c 0.12381,-0.006 0.22461,0.0394 0.22461,0.0996 0,0.0601 -0.0715,0.11318 -0.1582,0.11718 -0.0866,0.004 -0.18741,-0.0412 -0.22461,-0.0996 -0.0372,-0.0584 0.0343,-0.11118 0.1582,-0.11718 z m 4.3125,0.19922 c 0.78326,-0.0286 1.61547,0.0791 2.07227,0.29101 0.43437,0.20154 1.71289,1.33996 1.71289,1.52539 0,0.0548 0.22754,0.37842 0.50391,0.71875 0.27632,0.34032 0.54726,0.71621 0.60156,0.83399 0.0543,0.11779 0.13895,0.28514 0.18945,0.37304 0.0506,0.0879 0.17243,0.30451 0.26953,0.48047 0.0971,0.17596 0.30361,0.5493 0.45899,0.83008 0.15528,0.28079 0.24934,0.56285 0.21094,0.62695 -0.0385,0.0641 0.0281,0.21842 0.14843,0.34375 0.27275,0.28444 0.61399,1.1074 0.79688,1.92774 0.12924,0.57943 0.12292,0.64963 -0.0801,0.93359 -0.12063,0.16882 -0.41311,0.40803 -0.64844,0.53125 -0.23527,0.12322 -0.46035,0.27966 -0.50195,0.34766 -0.0443,0.0723 -0.12697,-0.009 -0.19727,-0.19532 -0.40061,-1.0628 -0.48183,-1.23962 -0.61718,-1.3457 -0.0824,-0.0646 -0.15039,-0.16591 -0.15039,-0.22461 0,-0.0587 -0.0785,-0.28295 -0.17579,-0.49804 -0.40312,-0.89063 -0.46666,-1.04943 -0.53906,-1.35938 -0.0894,-0.38332 -0.83823,-1.77806 -1.21875,-2.26953 -0.26576,-0.3433 -1.27623,-0.89552 -1.43945,-0.78711 -0.0471,0.0313 -0.22461,-0.008 -0.39258,-0.0879 -0.16795,-0.0794 -0.39828,-0.13977 -0.51172,-0.13477 -0.1134,0.005 -0.20508,-0.0394 -0.20508,-0.0996 0,-0.0649 -0.41216,-0.0926 -1.01171,-0.0664 -0.55641,0.0242 -1.49965,0.0187 -2.09571,-0.0117 -0.76488,-0.0391 -1.12533,-0.0184 -1.22656,0.0703 -0.1053,0.0922 -0.18533,0.0868 -0.29883,-0.0215 -0.11414,-0.10882 -0.52278,-0.13778 -1.55859,-0.10938 -0.77202,0.021 -1.42111,0.0233 -1.44141,0.004 -0.0362,-0.0345 0.51663,-0.61987 0.94141,-0.9961 0.11813,-0.10462 0.33089,-0.22834 0.47265,-0.27734 0.14176,-0.049 0.37352,-0.16867 0.51368,-0.26367 0.40287,-0.27302 1.32297,-0.51602 2.6621,-0.70508 0.68069,-0.0961 1.58383,-0.23655 2.00586,-0.31055 0.23443,-0.0411 0.48892,-0.0647 0.75,-0.0742 z m -7.80859,1.45312 c 0.1774,7.4e-4 0.3077,0.0134 0.3457,0.0352 0.18057,0.10324 -0.829,1.25208 -1.21679,1.38476 -0.40775,0.13952 -2.20251,0.29827 -5.6875,0.50196 -1.71419,0.10016 -3.19105,0.21199 -3.28125,0.25 -0.21259,0.0895 -1.12849,0.23128 -2.29688,0.35546 -0.51127,0.0543 -1.02814,0.14593 -1.14844,0.20313 -0.54044,0.25703 -4.29306,0.55826 -6.72461,0.53906 -0.45109,-0.003 -1.23872,0.0212 -1.75,0.0566 -0.51127,0.0355 -1.069,0.0513 -1.24023,0.0352 -0.46638,-0.044 -2.18139,0.24784 -2.35547,0.40039 -0.19547,0.17123 -3.58499,0.56188 -4.8789,0.5625 -2.22134,0.001 -4.65858,0.099 -4.7129,0.18945 l 0,0.002 c -0.088,0.14651 -6.07613,0.36313 -8.24804,0.29883 -1.0526,-0.0313 -2.23207,-0.0404 -2.62305,-0.0215 -0.39093,0.019 -0.84628,0.037 -1.01172,0.041 -0.38449,0.009 -0.88901,0.0309 -1.20312,0.0547 -0.13531,0.01 -0.39377,0.006 -0.57422,-0.01 -0.18042,-0.0155 -0.42187,-0.0312 -0.53711,-0.0352 -0.11521,-0.004 -0.17787,-0.0412 -0.13867,-0.082 0.039,-0.0408 0.79733,-0.12927 1.68554,-0.19727 3.57548,-0.27373 5.36701,-0.49065 7.02735,-0.84765 0.57138,-0.12287 1.97436,-0.31086 3.11719,-0.41797 1.14278,-0.10712 2.79191,-0.27773 3.66406,-0.38086 0.87215,-0.10308 1.70899,-0.19136 1.85937,-0.19336 0.15039,-0.002 0.42113,-0.007 0.60157,-0.01 1.88955,-0.0327 8.37529,-0.65816 11.35742,-1.0957 0.5928,-0.087 1.66056,-0.18585 2.37304,-0.21875 0.71244,-0.0329 1.53165,-0.11936 1.82032,-0.19336 0.28867,-0.074 2.34484,-0.23669 4.57031,-0.36133 2.22547,-0.12464 5.32676,-0.3431 6.89062,-0.48437 1.56384,-0.14127 3.22131,-0.28888 3.6836,-0.33008 0.23113,-0.0207 0.45542,-0.032 0.63281,-0.0312 z m 3.77734,1.94336 c 1.1785,-0.0255 2.3618,-5.3e-4 2.5586,0.0957 0.11802,0.0578 0.45405,0.0937 0.74805,0.0801 0.51873,-0.024 1.25102,0.13017 1.95703,0.41211 0.18953,0.0757 0.39874,0.13581 0.46484,0.13281 0.0661,-0.003 0.12109,0.0434 0.12109,0.10352 0,0.0602 0.0648,0.10751 0.14454,0.10351 0.21298,-0.01 0.58404,0.40617 0.7871,0.88282 0.0977,0.22937 0.2627,0.49268 0.36719,0.58398 0.10455,0.0913 0.25187,0.3605 0.32617,0.59766 0.23073,0.7363 0.6929,1.90138 1.06446,2.68359 0.19569,0.41199 0.43505,1.06662 0.53125,1.45313 0.0962,0.38652 0.22064,0.80985 0.27734,0.9414 0.0567,0.13156 0.20325,0.72836 0.32422,1.32617 0.12096,0.59782 0.29336,1.22791 0.38477,1.40039 0.25472,0.48079 0.20738,0.71694 -0.20118,0.98829 -0.46701,0.31023 -1.17128,0.35697 -1.41992,0.0937 -0.12686,-0.13432 -0.18164,-0.39282 -0.18164,-0.86133 0,-0.36764 -0.0492,-0.69607 -0.10937,-0.73047 -0.0601,-0.0344 -0.10938,-0.19033 -0.10938,-0.34766 0,-0.15734 -0.116,-0.62991 -0.25977,-1.04883 -0.14373,-0.41892 -0.29513,-0.95057 -0.33593,-1.18164 -0.0408,-0.23108 -0.11873,-0.49845 -0.17383,-0.59375 -0.0551,-0.0953 -0.19498,-0.57296 -0.31055,-1.0625 -0.11558,-0.48954 -0.27652,-0.95876 -0.35742,-1.04297 -0.0808,-0.0842 -0.26599,-0.31158 -0.41211,-0.5039 -0.84316,-1.10993 -1.61464,-1.29885 -4.32812,-1.06445 -0.30072,0.026 -1.26067,0.044 -2.13282,0.041 -1.00111,-0.004 -2.35227,0.0814 -3.66406,0.23047 -2.5869,0.29402 -2.56983,0.2959 -2.49023,-0.22656 0.0765,-0.50164 0.18755,-0.72974 0.64843,-1.31641 0.20115,-0.25608 0.36524,-0.49977 0.36524,-0.54297 0,-0.0432 0.0757,-0.1574 0.16797,-0.2539 0.0934,-0.0979 0.14107,-0.26446 0.10547,-0.375 -0.10607,-0.32925 0.33596,-0.51391 1.41992,-0.59571 0.54,-0.0408 1.07504,-0.12881 1.18945,-0.19531 0.17957,-0.10436 1.3547,-0.18151 2.5332,-0.20703 z m -6.24609,0.72852 c 0.12076,0.1152 -0.11031,0.98714 -0.26367,0.99414 -0.34756,0.0161 -0.56108,1.27198 -0.30859,1.81445 0.0703,0.1502 0.0918,0.31047 0.0488,0.35547 -0.043,0.045 -0.45697,0.11192 -0.91992,0.14844 -0.46299,0.0365 -1.28482,0.13836 -1.82617,0.22656 -0.54132,0.0881 -1.64893,0.23356 -2.46094,0.32226 -1.77414,0.19379 -12.33364,0.6745 -13.72461,0.625 -0.54131,-0.0195 -1.59971,-0.0304 -2.35156,-0.0234 -0.75187,0.007 -1.99098,0.007 -2.75391,-0.002 -0.98936,-0.011 -1.47826,0.0254 -1.70312,0.12891 -0.2416,0.1111 -0.38893,0.1197 -0.63477,0.0332 -0.22064,-0.0776 -1.65343,-0.0608 -4.58593,0.0547 -2.34578,0.0924 -4.33939,0.14062 -4.42969,0.10742 -0.4621,-0.16983 -6.53388,0.001 -17.55274,0.49219 -12.65614,0.56405 -15.935,0.7599 -17.05859,1.02539 -0.36089,0.0853 -0.76501,0.18119 -0.89648,0.21289 -0.13147,0.0317 -0.29773,-0.009 -0.36915,-0.0918 -0.10775,-0.12489 -0.0711,-0.15311 0.20704,-0.16601 0.18424,-0.009 0.36514,-0.067 0.40234,-0.12891 0.0372,-0.0618 0.20547,-0.11895 0.375,-0.12695 0.18966,-0.009 0.36668,-0.10345 0.45898,-0.2461 0.10903,-0.16855 0.29106,-0.24666 0.66797,-0.28906 0.28533,-0.0321 0.58306,-0.11404 0.66016,-0.18164 0.0771,-0.0675 0.40565,-0.17011 0.73242,-0.22851 0.32679,-0.0584 0.75892,-0.21058 0.95899,-0.3379 0.20012,-0.12729 0.57994,-0.2566 0.84375,-0.2871 0.26378,-0.0304 0.58281,-0.11606 0.70898,-0.18946 0.14307,-0.0832 0.85577,-0.15837 1.89453,-0.20117 0.9161,-0.0377 2.15832,-0.13284 2.75977,-0.21094 0.66228,-0.086 1.26636,-0.10794 1.53125,-0.0566 0.68376,0.13236 4.82306,-0.0829 6.99804,-0.36328 1.45528,-0.18764 3.23823,-0.30446 6.83594,-0.44726 11.90348,-0.47244 21.3597,-0.93592 23.1836,-1.13868 3.88204,-0.43157 4.2681,-0.46164 4.73632,-0.35547 0.64666,0.14667 3.68989,0.0172 5.37891,-0.22851 0.78191,-0.11377 1.88955,-0.2691 2.46094,-0.3457 0.5714,-0.0766 1.30983,-0.20275 1.64062,-0.28125 0.82002,-0.19463 8.22459,-0.73811 8.35547,-0.61328 z m 5.75391,3.59374 c 2.10106,-0.0395 4.37244,0.0812 4.83593,0.30079 0.10445,0.0495 0.28907,0.0861 0.41016,0.0801 0.12112,-0.006 0.31915,0.0825 0.43945,0.19727 0.12033,0.11469 0.26977,0.20808 0.33203,0.20508 0.23479,-0.0109 1.3086,2.92332 1.3086,3.57617 0,0.19822 0.073,0.6265 0.16406,0.95117 0.0911,0.32468 0.26382,1.1194 0.38281,1.76563 0.11908,0.64623 0.24174,1.21582 0.27344,1.26562 0.0317,0.0498 0.0863,0.30086 0.12109,0.5586 0.035,0.25774 0.17731,0.93102 0.31446,1.49609 0.13711,0.56507 0.22386,1.07045 0.19336,1.12305 -0.0303,0.0525 -0.20191,0.0724 -0.38086,0.0449 -0.25642,-0.0394 -0.63883,0.1151 -1.80274,0.72851 -0.72491,0.38205 -1.19166,0.7802 -1.31532,0.83059 -0.12365,0.0504 -0.45018,0.12565 -0.73758,0.19489 0.0263,-0.0779 0.033,-0.16107 0.0195,-0.24218 -0.16239,-0.97433 -0.70489,-1.72071 -1.41797,-2.16407 -0.71308,-0.44336 -1.58001,-0.6001 -2.4414,-0.50781 -1.7228,0.18459 -3.48272,1.40057 -3.93555,3.52539 -0.0636,0.23478 0.051,0.48126 0.27148,0.58399 -1.76519,0.21486 -3.47802,0.3897 -4.74804,0.47265 -0.64542,0.0422 -1.1794,0.0606 -1.53125,0.0508 -0.0685,-0.002 -0.0873,-0.008 -0.14063,-0.0117 l -0.36308,-11.19545 0,-0.004 c 0.0189,-0.0436 0.0371,-0.0886 0.0625,-0.13086 0.13022,-0.21654 0.2993,-0.55079 0.375,-0.74219 0.0756,-0.1914 0.43204,-0.64788 0.79297,-1.01367 0.46639,-0.47268 0.64151,-0.72293 0.60351,-0.86719 -0.0365,-0.13785 0.0223,-0.23739 0.1836,-0.30859 0.25339,-0.11189 2.97589,-0.42779 5.75976,-0.66797 0.5894,-0.0509 1.27035,-0.0825 1.97071,-0.0957 z m -10.85743,1.14258 c 0.25919,0.017 0.40049,0.058 0.51368,0.12696 0.36357,0.22124 0.37072,0.67955 0.0215,1.29687 -0.14815,0.26187 -0.2096,0.53409 -0.24609,0.89063 -0.12006,0.0999 -0.18653,0.2502 -0.17969,0.40625 l 0.375,11.5625 c 8.8e-4,0.019 0.003,0.0379 0.006,0.0566 0.0363,0.24482 0.21153,0.3682 0.31055,0.41992 0.002,8.3e-4 0.002,0.001 0.004,0.002 0.006,0.03 0.0143,0.0594 0.0254,0.0879 0,0 0.99043,2.63238 1.47266,4 -5.31584,-0.55481 -10.51781,-1.06946 -15.73438,-1.58789 -0.0822,-0.63257 -0.30856,-1.20802 -0.6582,-1.66406 -0.4426,-0.57731 -1.09833,-0.97266 -1.83594,-0.97266 -0.73761,0 -1.39138,0.39535 -1.83398,0.97266 -0.25594,0.33383 -0.44069,0.73524 -0.55859,1.17187 -8.43157,-0.82323 -16.93621,-1.62125 -25.80665,-2.4082 -0.20575,-1.16305 -1.07551,-2.0957 -2.20312,-2.0957 -1.00224,0 -1.79572,0.73833 -2.10547,1.71875 -11.32846,-0.98851 -23.2211,-1.9787 -37.04101,-3.03906 0.0529,-0.11727 0.018,-0.16713 0.21679,-0.36914 0.36787,-0.37386 0.98282,-0.82056 1.75391,-1.28321 1.54218,-0.9253 3.70864,-1.92858 5.90039,-2.8457 4.3835,-1.83423 8.87109,-3.33203 8.87109,-3.33203 0.16326,-0.052 0.28855,-0.18389 0.33203,-0.34961 l 0.81446,0 c 0.0754,-0.0176 0.16036,-0.1046 0.19531,-0.2168 0.0556,-0.17755 0.10925,-0.20335 0.27344,-0.12305 0.1384,0.0677 0.46462,0.0491 1.0039,-0.0566 0.43954,-0.0862 1.51259,-0.21521 2.38477,-0.28711 1.47759,-0.12186 1.96578,-0.14725 2.87109,-0.15625 1.43789,-0.0145 7.75593,-0.30966 14.84571,-0.6914 2.85698,-0.15383 7.0886,-0.32621 9.40429,-0.38281 2.31569,-0.0566 4.58011,-0.1126 5.03125,-0.125 0.4511,-0.0124 0.93501,0.034 1.07422,0.10351 0.19364,0.0967 0.38058,0.0939 0.80078,-0.0156 0.30193,-0.0789 0.60628,-0.11197 0.67578,-0.0723 0.0694,0.0398 0.79322,0.0293 1.60938,-0.0234 0.8161,-0.0528 2.245,-0.0761 3.17383,-0.0527 0.92885,0.0231 2.05675,0.0236 2.50781,0.002 0.86692,-0.0414 4.71018,-0.0327 5.35937,0.0117 0.21047,0.0144 1.02277,-0.004 1.80469,-0.043 1.48257,-0.0724 2.53874,-0.0996 3.28125,-0.082 0.97411,0.0232 8.38212,-0.32599 8.49414,-0.40039 0.0663,-0.0441 0.77504,-0.10825 1.57422,-0.14062 0.58448,-0.0237 0.96154,-0.0307 1.2207,-0.0137 z m 12.15821,10.23828 c 0.48801,0.0201 0.94496,0.15036 1.3125,0.37891 0.49004,0.30469 0.83817,0.76925 0.95703,1.48242 0.0162,0.0965 0.0604,0.18611 0.12695,0.25781 -0.44152,0.0894 -0.88443,0.18156 -1.43554,0.27344 -1.37377,0.22906 -3.04493,0.46443 -4.69727,0.67188 0.094,-0.0774 0.15647,-0.18644 0.17578,-0.30664 0.35967,-1.68768 1.72475,-2.5967 3.06445,-2.74024 0.16747,-0.0179 0.33343,-0.0243 0.4961,-0.0176 z m 7.3789,1.22071 c 0.0877,-0.0136 0.0664,0.0428 0.0664,0.15234 0,0.0982 0.1033,0.34027 0.22852,0.53711 0.19415,0.30514 0.21932,0.47611 0.16992,1.1543 -0.032,0.43751 -0.0624,0.88748 -0.0684,1.00195 -0.0128,0.23377 -0.29384,0.82874 -0.48047,1.01758 -0.18894,0.19116 -0.73475,0.58634 -1.19141,0.86328 -0.62048,0.37579 -0.84375,0.34037 -0.84375,-0.13477 0,-0.14224 0.0742,-0.28942 0.16407,-0.32812 0.50808,-0.25804 0.64651,-0.53846 1.01756,-0.81836 0.19811,-0.092 0.38778,-0.24018 0.42188,-0.33008 0.0339,-0.0899 0.12909,-0.16592 0.21289,-0.16992 0.0838,-0.004 0.15234,-0.0571 0.15234,-0.11719 0,-0.0601 -0.0493,-0.10651 -0.10937,-0.10351 -0.0602,0.003 -0.10938,-0.23398 -0.10938,-0.52539 0,-0.39097 -0.0573,-0.58015 -0.21875,-0.71875 -0.12021,-0.10331 -0.21875,-0.24265 -0.21875,-0.31055 0,-0.13579 -0.64035,-0.52175 -0.72265,-0.43555 -0.0924,0.0952 -0.0942,1.65735 -0.004,2.06055 0.0847,0.37786 0.0737,0.39679 -0.33203,0.59375 -0.19463,0.0945 -0.42824,0.23032 -0.60156,0.33789 -0.0191,-0.008 -0.0387,-0.0142 -0.0586,-0.0195 -0.21921,-0.0702 -0.52952,-0.34159 -0.75,-0.61719 -0.22047,-0.2756 -0.35351,-0.51953 -0.35351,-0.51953 -0.0869,-0.16737 -0.26063,-0.27159 -0.44922,-0.26953 -0.37893,0.005 -0.61471,0.41341 -0.42969,0.74414 0,0 0.17165,0.31857 0.45117,0.66797 0.27952,0.3494 0.66453,0.76546 1.22657,0.94531 0.0154,0.006 0.031,0.0112 0.0469,0.0156 l 0.0742,0.47851 c -2.45668,0.72471 -5.76813,1.52686 -8.54102,2.02149 -1.43293,0.2556 -2.72124,0.4295 -3.64257,0.46875 -0.46067,0.0196 -0.83277,0.002 -1.05469,-0.0391 -0.0933,-0.0173 -0.13814,-0.0368 -0.16602,-0.0488 -0.37105,-1.09679 -1.29741,-3.55087 -1.51562,-4.12891 0.37306,-9.1e-4 0.77039,-0.009 1.30078,-0.043 1.32355,-0.0865 3.08197,-0.26503 4.89062,-0.48633 1.80865,-0.2213 3.50942,-0.37581 5.02735,-0.6289 1.35751,-0.22634 2.55413,-0.19928 3.16992,-0.41016 l 0.28908,-0.0488 c 1.02025,-0.9539 1.32005,-1.15853 2.23633,-1.5332 0.43133,-0.17638 0.62716,-0.26181 0.71484,-0.27539 z m -65.86523,1.80664 c 0.48633,0 0.95567,0.39316 1.15234,1 0.005,0.0144 0.007,0.0302 0.0117,0.0449 0.0241,0.0806 0.0464,0.1629 0.0605,0.25 2.1e-4,10e-4 -2.1e-4,0.003 0,0.004 0.0162,0.10433 0.0254,0.21338 0.0254,0.32617 0,0.13313 -0.0147,0.25968 -0.0371,0.38086 -0.1374,0.74453 -0.66388,1.24414 -1.21289,1.24414 -0.59892,0 -1.1675,-0.59634 -1.23633,-1.45508 -0.005,-0.0566 -0.0137,-0.11115 -0.0137,-0.16992 0,-0.14993 0.0176,-0.29055 0.0469,-0.42383 0.002,-0.0107 0.005,-0.0206 0.008,-0.0312 0.0306,-0.12876 0.0715,-0.251 0.12304,-0.36328 0.22643,-0.4933 0.64076,-0.80664 1.07227,-0.80664 z m 53.54492,1.75 c -0.54686,0.0346 -0.64787,0.79679 -0.1289,0.97265 0.38206,0.13175 0.55463,0.28745 0.6289,0.39844 0.0743,0.11099 0.0795,0.19567 0.0547,0.30664 -0.0248,0.11097 -0.10085,0.23727 -0.18359,0.31641 -0.0827,0.0791 -0.16621,0.083 -0.10938,0.0859 -0.16677,-0.009 -0.83586,-0.16324 -1.25976,-0.39063 -0.21196,-0.11369 -0.36357,-0.25064 -0.40626,-0.31836 -0.0427,-0.0677 -0.0529,-0.0124 0.008,-0.11328 0.34255,-0.57295 -0.51696,-1.0867 -0.85938,-0.51367 -0.2207,0.36783 -0.19038,0.84897 0.006,1.16015 0.1961,0.3112 0.48149,0.50627 0.7793,0.66602 0.59562,0.3195 1.23904,0.48515 1.68164,0.50781 0.36152,0.0185 0.63206,-0.1514 0.85156,-0.36133 0.21951,-0.20992 0.39396,-0.48792 0.46875,-0.82226 0.0748,-0.33434 0.0278,-0.73599 -0.20117,-1.07813 -0.22895,-0.34213 -0.61058,-0.60831 -1.13477,-0.78906 -0.0626,-0.022 -0.12904,-0.0313 -0.19531,-0.0273 z m -23.14258,0.60937 c 0.38515,0 0.74785,0.19768 1.04102,0.58008 0.29317,0.3824 0.49219,0.94167 0.49219,1.57031 0,0.62865 -0.19902,1.18987 -0.49219,1.57227 -0.29317,0.3824 -0.65587,0.58008 -1.04102,0.58008 -0.38514,0 -0.74589,-0.19768 -1.03906,-0.58008 -0.29317,-0.3824 -0.49414,-0.94362 -0.49414,-1.57227 0,-0.62864 0.20097,-1.18791 0.49414,-1.57031 0.29317,-0.3824 0.65392,-0.58008 1.03906,-0.58008 z"
       id="path7448"
       inkscape:connector-curvature="0"
       sodipodi:nodetypes="ccccccccccsscccsccccccccccccscccccccccscsccccccccccsccccsssccccccccscccsccsccscccsccccccccsscccccccssccccccccscscssccccsccssssccscccscccccccsccccccccccccccccccccccscsccccccccccsscccccccccscscccccccscscccccssccccccccccsscccsccccscccccccscccccccccccccccccccccccccccscccssscscsccccccscccsccscscccccccscccccscscccsccccccccccccccscsscccscscsccccccccccccscsscccccccccsscccccscscccsscssccccccscscscscccccsscsccsscccccccccccccccscscsccccsccsccscccssscsscccccccccscccscccccccccscscccccccccsscccccscccccccccsccccscccccscccscccccccccsccccccscccccccccsccsccccccccccccccccccccscccscsccsscssccccscccccccccccscsccccccccsccsccscsccccccscscccscsscccccccccccccscssscsscccccccscccccccscccccsscccccccsccscccscccccccccccsccscccssccccccccsscccccccccccccccccccccccscccccscccccccccscsccccccscccscccccsscccccsccccscscsccscccssccccccsccccccssssssssscscccccccsssssssss" />
  </g>
</svg>
