<?xml version="1.0" encoding="UTF-8" standalone="no"?>
<!-- Created with Inkscape (http://www.inkscape.org/) -->

<svg
   xmlns:dc="http://purl.org/dc/elements/1.1/"
   xmlns:cc="http://creativecommons.org/ns#"
   xmlns:rdf="http://www.w3.org/1999/02/22-rdf-syntax-ns#"
   xmlns:svg="http://www.w3.org/2000/svg"
   xmlns="http://www.w3.org/2000/svg"
   xmlns:sodipodi="http://sodipodi.sourceforge.net/DTD/sodipodi-0.dtd"
   xmlns:inkscape="http://www.inkscape.org/namespaces/inkscape"
   id="svg2"
   version="1.1"
   inkscape:version="0.91 r13725"
   width="1920"
   height="1080"
   viewBox="0 0 1920 1080"
   sodipodi:docname="hotel.svg">
  <metadata
     id="metadata8">
    <rdf:RDF>
      <cc:Work
         rdf:about="">
        <dc:format>image/svg+xml</dc:format>
        <dc:type
           rdf:resource="http://purl.org/dc/dcmitype/StillImage" />
        <dc:title></dc:title>
      </cc:Work>
    </rdf:RDF>
  </metadata>
  <defs
     id="defs6" />
  <sodipodi:namedview
     pagecolor="#000000"
     bordercolor="#666666"
     borderopacity="1"
     objecttolerance="10"
     gridtolerance="10"
     guidetolerance="10"
     inkscape:pageopacity="0"
     inkscape:pageshadow="2"
     inkscape:window-width="1834"
     inkscape:window-height="1056"
     id="namedview4"
     showgrid="false"
     inkscape:zoom="0.47287766"
     inkscape:cx="1191.2163"
     inkscape:cy="489.31624"
     inkscape:window-x="78"
     inkscape:window-y="0"
     inkscape:window-maximized="0"
     inkscape:current-layer="layer2" />
  <g
     inkscape:groupmode="layer"
     id="layer2"
     inkscape:label="Layer 2">
    <path
       style="fill:none;fill-opacity:0.64485952;stroke:#ffffff;stroke-width:3;stroke-linecap:round;stroke-linejoin:round;stroke-miterlimit:4;stroke-dasharray:none;stroke-opacity:1"
       d="m 1643.8607,784.13194 105.006,-255.01438 134.2842,178.69315"
       id="path4142"
       inkscape:connector-curvature="0"
       sodipodi:nodetypes="ccc" />
    <path
       style="fill:none;fill-opacity:0.64485964;stroke:#ffffff;stroke-width:3;stroke-linecap:round;stroke-linejoin:round;stroke-miterlimit:4;stroke-dasharray:none;stroke-opacity:1"
       d="m 1664.2782,741.6461 187.152,-72.95756 0,302.4038 -183.9799,76.12956 z"
       id="path4146"
       inkscape:connector-curvature="0" />
    <g
       id="g4224">
      <path
         sodipodi:nodetypes="cc"
         inkscape:connector-curvature="0"
         id="path4148"
         d="m 1744.6373,527.00284 -490.6132,-5.28678"
         style="fill:none;fill-opacity:0.64485928;stroke:#ffffff;stroke-width:3;stroke-linecap:round;stroke-linejoin:round;stroke-miterlimit:4;stroke-dasharray:none;stroke-opacity:1" />
      <path
         sodipodi:nodetypes="cc"
         inkscape:connector-curvature="0"
         id="path4150"
         d="M 1644.1884,784.46902 1245.0366,544.44922"
         style="fill:none;fill-opacity:0.64485928;stroke:#ffffff;stroke-width:3;stroke-linecap:round;stroke-linejoin:round;stroke-miterlimit:4;stroke-dasharray:none;stroke-opacity:1" />
      <path
         sodipodi:nodetypes="cc"
         inkscape:connector-curvature="0"
         id="path4152"
         d="M 1666.3929,1047.2219 1228.1041,562.48834"
         style="fill:none;fill-opacity:0.64485928;stroke:#ffffff;stroke-width:3;stroke-linecap:round;stroke-linejoin:round;stroke-miterlimit:4;stroke-dasharray:none;stroke-opacity:1" />
    </g>
    <g
       id="g4207">
      <path
         inkscape:transform-center-y="0.74983451"
         inkscape:transform-center-x="24.798047"
         sodipodi:nodetypes="sssssssss"
         inkscape:connector-curvature="0"
         id="path4154"
         d="m 1575.5504,788.17963 18.908,10.86596 c 8.1901,4.70664 12.1994,10.87948 12.1994,19.7437 0,4.16351 -0.01,15.071 -0.01,25.69033 0,10.38848 -10.6459,20.41348 -17.5504,15.35644 l -21.0376,-15.40841 c -6.236,-4.56736 -9.5483,-9.99009 -9.5483,-20.85697 0,-9.64747 0.4286,-17.93036 0.4286,-21.77917 0,-10.07424 9.4719,-17.71139 16.6057,-13.61179 z"
         style="fill:#7f7f7f;fill-opacity:1;stroke:#ffffff;stroke-width:3;stroke-linecap:round;stroke-linejoin:round;stroke-miterlimit:4;stroke-dasharray:none;stroke-opacity:1" />
      <path
         style="fill:#7f7f7f;fill-opacity:1;stroke:#ffffff;stroke-width:2.45057106;stroke-linecap:round;stroke-linejoin:round;stroke-miterlimit:4;stroke-dasharray:none;stroke-opacity:1"
         d="m 1510.7068,742.88476 15.4284,8.88619 c 6.683,3.8491 9.9545,8.89701 9.9545,16.14563 0,3.40466 -0.01,12.32417 -0.01,21.008 0,8.49506 -8.6868,16.69251 -14.3207,12.55692 l -17.1662,-12.60082 c -5.0884,-3.73511 -7.7912,-8.16961 -7.7912,-17.05588 0,-7.88911 0.3497,-14.66232 0.3497,-17.80964 0,-8.23809 7.7289,-14.48294 13.5499,-11.13029 z"
         id="path4156"
         inkscape:connector-curvature="0"
         sodipodi:nodetypes="sssssssss"
         inkscape:transform-center-x="90.937047"
         inkscape:transform-center-y="-51.095083" />
      <path
         inkscape:transform-center-y="-89.162853"
         inkscape:transform-center-x="146.2172"
         sodipodi:nodetypes="sssssssss"
         inkscape:connector-curvature="0"
         id="path4158"
         d="m 1456.5133,709.62715 12.5096,7.43893 c 5.4187,3.2222 8.0713,7.44512 8.0713,13.50664 0,2.84708 -0.01,10.30588 -0.01,17.56756 0,7.10382 -7.0434,13.95426 -11.6115,10.49303 l -13.9187,-10.54613 c -4.1257,-3.12606 -6.3172,-6.83573 -6.3172,-14.2667 0,-6.59711 0.2836,-12.2609 0.2836,-14.89278 0,-6.88894 6.2667,-12.10705 10.9864,-9.30042 z"
         style="fill:#7f7f7f;fill-opacity:1;stroke:#ffffff;stroke-width:2.01786351;stroke-linecap:round;stroke-linejoin:round;stroke-miterlimit:4;stroke-dasharray:none;stroke-opacity:1" />
      <path
         style="fill:#7f7f7f;fill-opacity:1;stroke:#ffffff;stroke-width:1.63265347;stroke-linecap:round;stroke-linejoin:round;stroke-miterlimit:4;stroke-dasharray:none;stroke-opacity:1"
         d="m 1411.9964,677.1534 10.1216,6.01883 c 4.3842,2.60709 6.5305,6.02385 6.5305,10.92822 0,2.30358 -0.01,8.33853 -0.01,14.21395 0,5.74771 -5.6989,11.29041 -9.3949,8.48991 l -11.2616,-8.53287 c -3.3381,-2.52929 -5.1113,-5.53079 -5.1113,-11.54318 0,-5.33772 0.2294,-9.92029 0.2294,-12.04975 0,-5.57384 5.0704,-9.79581 8.8892,-7.52497 z"
         id="path4166"
         inkscape:connector-curvature="0"
         sodipodi:nodetypes="sssssssss"
         inkscape:transform-center-x="191.6231"
         inkscape:transform-center-y="-126.32869" />
      <path
         inkscape:transform-center-y="-155.41499"
         inkscape:transform-center-x="227.1582"
         sodipodi:nodetypes="sssssssss"
         inkscape:connector-curvature="0"
         id="path4168"
         d="m 1377.1571,651.73916 8.2527,4.90746 c 3.5746,2.12569 5.3246,4.91155 5.3246,8.91033 0,1.87822 -0.01,6.79887 -0.01,11.5894 0,4.68639 -4.6466,9.20563 -7.6602,6.92225 l -9.1821,-6.95729 c -2.7217,-2.06226 -4.1675,-4.50953 -4.1675,-9.41174 0,-4.35211 0.187,-8.08851 0.187,-9.82476 0,-4.54464 4.1342,-7.98703 7.2478,-6.13549 z"
         style="fill:#7f7f7f;fill-opacity:1;stroke:#ffffff;stroke-width:1.33118498;stroke-linecap:round;stroke-linejoin:round;stroke-miterlimit:4;stroke-dasharray:none;stroke-opacity:1" />
      <path
         style="fill:#7f7f7f;fill-opacity:1;stroke:#ffffff;stroke-width:1.09670937;stroke-linecap:round;stroke-linejoin:round;stroke-miterlimit:4;stroke-dasharray:none;stroke-opacity:1"
         d="m 1350.0599,631.97253 6.799,4.04306 c 2.945,1.75127 4.3868,4.04642 4.3868,7.34085 0,1.54739 -0.01,5.60136 -0.01,9.54808 0,3.86093 -3.8281,7.58415 -6.3109,5.70296 l -7.5648,-5.73183 c -2.2423,-1.69901 -3.4334,-3.71522 -3.4334,-7.75395 0,-3.58553 0.1541,-6.6638 0.1541,-8.09423 0,-3.74414 3.406,-6.58018 5.9711,-5.05477 z"
         id="path4170"
         inkscape:connector-curvature="0"
         sodipodi:nodetypes="sssssssss"
         inkscape:transform-center-x="254.79655"
         inkscape:transform-center-y="-178.03767" />
      <path
         style="fill:#7f7f7f;fill-opacity:1;stroke:#ffffff;stroke-width:0.87341535;stroke-linecap:round;stroke-linejoin:round;stroke-miterlimit:4;stroke-dasharray:none;stroke-opacity:1"
         d="m 1325.8667,611.9132 5.5048,3.1635 c 2.3845,1.37028 3.5518,3.16743 3.5518,5.74814 0,1.21216 0,4.38769 0,7.47939 0,3.02448 -3.0994,5.94314 -5.1095,4.47084 l -6.1249,-4.48598 c -1.8155,-1.32973 -2.7799,-2.9085 -2.7799,-6.07226 0,-2.80875 0.1248,-5.22021 0.1248,-6.34075 0,-2.933 2.7576,-5.15647 4.8346,-3.96292 z"
         id="path4172"
         inkscape:connector-curvature="0"
         sodipodi:nodetypes="sssssssss"
         inkscape:transform-center-x="279.46655"
         inkscape:transform-center-y="-200.99256" />
      <path
         inkscape:transform-center-y="-216.0866"
         inkscape:transform-center-x="298.7222"
         sodipodi:nodetypes="sssssssss"
         inkscape:connector-curvature="0"
         id="path4174"
         d="m 1306.9882,598.72612 4.4918,2.58711 c 1.9457,1.12062 2.8982,2.59025 2.8982,4.70061 0,0.99122 0,3.58798 0,6.11618 0,2.47323 -2.5291,4.85983 -4.1693,3.6558 l -4.9978,-3.66858 c -1.4814,-1.08743 -2.2683,-2.37849 -2.2683,-4.96563 0,-2.29682 0.1018,-4.26876 0.1018,-5.18506 0,-2.39843 2.2502,-4.21655 3.9449,-3.24045 z"
         style="fill:#7f7f7f;fill-opacity:1;stroke:#ffffff;stroke-width:0.71345544;stroke-linecap:round;stroke-linejoin:round;stroke-miterlimit:4;stroke-dasharray:none;stroke-opacity:1" />
      <path
         style="fill:#7f7f7f;fill-opacity:1;stroke:#ffffff;stroke-width:0.58747768;stroke-linecap:round;stroke-linejoin:round;stroke-miterlimit:4;stroke-dasharray:none;stroke-opacity:1"
         d="m 1291.2104,589.04355 3.642,2.16575 c 1.5776,0.93811 2.3499,2.16757 2.3499,3.93231 0,0.8289 0,3.00038 0,5.11453 0,2.0682 -2.0506,4.06262 -3.3806,3.05492 l -4.0522,-3.07038 c -1.2012,-0.91012 -1.8392,-1.99014 -1.8392,-4.15358 0,-1.92067 0.083,-3.56963 0.083,-4.33587 0,-2.00564 1.8244,-3.52482 3.1985,-2.70771 z"
         id="path4176"
         inkscape:connector-curvature="0"
         sodipodi:nodetypes="sssssssss"
         inkscape:transform-center-x="314.8164"
         inkscape:transform-center-y="-227.16959" />
      <path
         inkscape:transform-center-y="-237.99001"
         inkscape:transform-center-x="328.0358"
         sodipodi:nodetypes="sssssssss"
         inkscape:connector-curvature="0"
         id="path4178"
         d="m 1278.2498,579.58919 2.9468,1.75232 c 1.2764,0.75902 1.9013,1.75377 1.9013,3.18162 0,0.67066 0,2.42761 0,4.13817 0,1.67338 -1.6592,3.28707 -2.7352,2.47173 l -3.2787,-2.48424 c -0.9719,-0.73637 -1.4881,-1.61022 -1.4881,-3.36066 0,-1.55402 0.067,-2.88818 0.067,-3.50815 0,-1.62276 1.4762,-2.85194 2.588,-2.19082 z"
         style="fill:#7f7f7f;fill-opacity:1;stroke:#ffffff;stroke-width:0.47532821;stroke-linecap:round;stroke-linejoin:round;stroke-miterlimit:4;stroke-dasharray:none;stroke-opacity:1" />
      <path
         style="fill:#7f7f7f;fill-opacity:1;stroke:#ffffff;stroke-width:0.38755915;stroke-linecap:round;stroke-linejoin:round;stroke-miterlimit:4;stroke-dasharray:none;stroke-opacity:1"
         d="m 1268.1068,572.19013 2.4027,1.42875 c 1.0407,0.61886 1.5502,1.42994 1.5502,2.59414 0,0.54682 0,1.97935 0,3.37406 0,1.36439 -1.3528,2.68012 -2.2301,2.01533 l -2.6733,-2.02554 c -0.7924,-0.6004 -1.2133,-1.31289 -1.2133,-2.74011 0,-1.26707 0.054,-2.35488 0.054,-2.86037 0,-1.32311 1.2037,-2.32533 2.1101,-1.78627 z"
         id="path4180"
         inkscape:connector-curvature="0"
         sodipodi:nodetypes="sssssssss"
         inkscape:transform-center-x="338.38135"
         inkscape:transform-center-y="-246.45814" />
      <path
         inkscape:transform-center-y="-253.04447"
         inkscape:transform-center-x="346.428"
         sodipodi:nodetypes="sssssssss"
         inkscape:connector-curvature="0"
         id="path4182"
         d="m 1260.2177,566.43531 1.9795,1.17709 c 0.8574,0.50986 1.2772,1.17806 1.2772,2.1372 0,0.4505 0,1.63071 0,2.77975 0,1.12407 -1.1146,2.20803 -1.8374,1.66035 l -2.2024,-1.66876 c -0.6528,-0.49465 -0.9996,-1.08163 -0.9996,-2.25746 0,-1.04389 0.045,-1.9401 0.045,-2.35655 0,-1.09007 0.9916,-1.91574 1.7384,-1.47164 z"
         style="fill:#7f7f7f;fill-opacity:1;stroke:#ffffff;stroke-width:0.31929427;stroke-linecap:round;stroke-linejoin:round;stroke-miterlimit:4;stroke-dasharray:none;stroke-opacity:1" />
      <path
         inkscape:transform-center-y="-259.37967"
         inkscape:transform-center-x="353.1728"
         sodipodi:nodetypes="sssssssss"
         inkscape:connector-curvature="0"
         id="path4184"
         d="m 1253.6046,560.89913 1.6258,0.9343 c 0.7042,0.40468 1.049,0.93544 1.049,1.69762 0,0.358 0,1.29585 0,2.20893 0,0.89324 -0.9154,1.75523 -1.5091,1.32041 l -1.8089,-1.32488 c -0.5362,-0.39271 -0.821,-0.85897 -0.821,-1.79334 0,-0.82954 0.037,-1.54173 0.037,-1.87266 0,-0.86622 0.8144,-1.52289 1.4278,-1.17039 z"
         style="fill:#7f7f7f;fill-opacity:1;stroke:#ffffff;stroke-width:0.25795084;stroke-linecap:round;stroke-linejoin:round;stroke-miterlimit:4;stroke-dasharray:none;stroke-opacity:1" />
      <path
         style="fill:#7f7f7f;fill-opacity:1;stroke:#ffffff;stroke-width:0.21070896;stroke-linecap:round;stroke-linejoin:round;stroke-miterlimit:4;stroke-dasharray:none;stroke-opacity:1"
         d="m 1248.0291,557.00452 1.3266,0.76406 c 0.5746,0.33096 0.856,0.76499 0.856,1.38826 0,0.29274 0,1.05966 0,1.80632 0,0.73044 -0.747,1.43529 -1.2314,1.0797 l -1.476,-1.08347 c -0.4376,-0.32116 -0.6699,-0.70246 -0.6699,-1.46653 0,-0.67833 0.03,-1.26072 0.03,-1.53133 0,-0.70835 0.6646,-1.2453 1.1651,-0.95702 z"
         id="path4186"
         inkscape:connector-curvature="0"
         sodipodi:nodetypes="sssssssss"
         inkscape:transform-center-x="358.85965"
         inkscape:transform-center-y="-263.83748" />
      <path
         inkscape:transform-center-y="-267.11069"
         inkscape:transform-center-x="363.61285"
         sodipodi:nodetypes="sssssssss"
         inkscape:connector-curvature="0"
         id="path4188"
         d="m 1243.3693,554.14491 1.0757,0.63962 c 0.4659,0.27706 0.694,0.64016 0.694,1.16135 0,0.24481 0,0.88612 0,1.5105 0,0.61081 -0.6056,1.19983 -0.9984,0.90223 l -1.1968,-0.90679 c -0.3548,-0.2688 -0.5431,-0.58777 -0.5431,-1.22671 0,-0.56723 0.024,-1.05422 0.024,-1.28052 0,-0.59234 0.5388,-1.04101 0.9447,-0.79968 z"
         style="fill:#7f7f7f;fill-opacity:1;stroke:#ffffff;stroke-width:0.17350322;stroke-linecap:round;stroke-linejoin:round;stroke-miterlimit:4;stroke-dasharray:none;stroke-opacity:1" />
    </g>
  </g>
</svg>
