<?xml version="1.0" encoding="UTF-8" standalone="no"?>
<!-- Created with Inkscape (http://www.inkscape.org/) -->

<svg
   xmlns:dc="http://purl.org/dc/elements/1.1/"
   xmlns:cc="http://creativecommons.org/ns#"
   xmlns:rdf="http://www.w3.org/1999/02/22-rdf-syntax-ns#"
   xmlns:svg="http://www.w3.org/2000/svg"
   xmlns="http://www.w3.org/2000/svg"
   xmlns:sodipodi="http://sodipodi.sourceforge.net/DTD/sodipodi-0.dtd"
   xmlns:inkscape="http://www.inkscape.org/namespaces/inkscape"
   width="210mm"
   height="297mm"
   viewBox="0 0 744.09448819 1052.3622047"
   id="svg2"
   version="1.1"
   inkscape:version="0.91 r13725"
   sodipodi:docname="prisoner_cap.svg">
  <defs
     id="defs4" />
  <sodipodi:namedview
     id="base"
     pagecolor="#000000"
     bordercolor="#666666"
     borderopacity="1.0"
     inkscape:pageopacity="0"
     inkscape:pageshadow="2"
     inkscape:zoom="11.2"
     inkscape:cx="259.82603"
     inkscape:cy="764.49839"
     inkscape:document-units="px"
     inkscape:current-layer="layer1"
     showgrid="false"
     inkscape:object-nodes="true"
     inkscape:object-paths="true"
     inkscape:snap-global="false"
     inkscape:window-width="1912"
     inkscape:window-height="1056"
     inkscape:window-x="0"
     inkscape:window-y="0"
     inkscape:window-maximized="0"
     inkscape:snap-smooth-nodes="false" />
  <metadata
     id="metadata7">
    <rdf:RDF>
      <cc:Work
         rdf:about="">
        <dc:format>image/svg+xml</dc:format>
        <dc:type
           rdf:resource="http://purl.org/dc/dcmitype/StillImage" />
        <dc:title></dc:title>
      </cc:Work>
    </rdf:RDF>
  </metadata>
  <g
     inkscape:label="Layer 1"
     inkscape:groupmode="layer"
     id="layer1">
    <path
       style="fill:none;fill-opacity:1;stroke:#ffffff;stroke-width:0.366;stroke-linecap:round;stroke-linejoin:round;stroke-miterlimit:4;stroke-dasharray:none;stroke-opacity:1"
       d="m 244.15139,277.85505 c -1.65157,2.24896 -1.39734,5.35806 -1.39741,8.14829 0.12721,5.6503 3.57659,7.42152 3.66173,11.74485 0.0182,0.92679 12.85628,0.87736 12.87101,-0.0457 0.0338,-2.11645 0.58749,-2.86609 1.3035,-3.05794 2.8139,-0.75398 2.47705,-2.52092 2.10821,-4.5361 5.90554,0.0833 1.1335,-3.9269 1.22549,-7.125 -0.005,-2.79224 -0.69797,-3.40127 -1.69071,-5.12841 -3.39365,-5.90416 -13.83096,-5.78843 -18.08182,1e-5 z"
       id="path4136"
       inkscape:connector-curvature="0"
       sodipodi:nodetypes="scsssccss" />
    <circle
       style="fill:none;fill-opacity:1;stroke:#ffffff;stroke-width:0.48260191;stroke-linecap:round;stroke-linejoin:round;stroke-miterlimit:4;stroke-dasharray:none;stroke-opacity:1"
       id="path4140"
       cx="258.82669"
       cy="283.33804"
       r="1.2926837" />
    <path
       style="fill:none;fill-opacity:1;stroke:#ffffff;stroke-width:0.36606452;stroke-linecap:round;stroke-linejoin:round;stroke-miterlimit:4;stroke-dasharray:none;stroke-opacity:1"
       d="m 257.18346,291.36565 5.65614,0"
       id="path4149"
       inkscape:connector-curvature="0" />
    <path
       style="fill:#ffffff;fill-opacity:1;stroke:none;stroke-width:0.366;stroke-linecap:round;stroke-linejoin:miter;stroke-miterlimit:4;stroke-dasharray:none;stroke-dashoffset:0;stroke-opacity:1"
       d="M 261.5957 276.92383 L 243.16211 279.98242 C 242.99138 280.59668 242.88142 281.23488 242.82227 281.89062 L 262.67578 278.5957 L 262.67383 278.5918 C 262.53054 278.3569 262.39305 278.13493 262.23242 277.85547 C 262.04255 277.52513 261.82736 277.21654 261.5957 276.92383 z "
       id="path4157" />
    <path
       style="fill:#ffffff;fill-opacity:1;stroke:none;stroke-width:0.366;stroke-linecap:round;stroke-linejoin:miter;stroke-miterlimit:4;stroke-dasharray:none;stroke-dashoffset:0;stroke-opacity:1"
       d="M 256.9375 273.94922 L 246.37109 275.70312 C 245.53079 276.3043 244.77122 277.01274 244.15234 277.85547 C 244.13443 277.87986 244.12294 277.90705 244.10547 277.93164 L 259.86328 275.31641 C 258.98994 274.70698 257.99888 274.25457 256.9375 273.94922 z "
       id="path4189" />
    <path
       style="fill:none;fill-opacity:1;stroke:#ffffff;stroke-width:0.366;stroke-linecap:round;stroke-linejoin:miter;stroke-miterlimit:4;stroke-dasharray:none;stroke-dashoffset:0;stroke-opacity:1"
       d="m 240.08929,303.25506 c 1.85784,-2.41173 3.6449,-4.24425 6.32678,-5.50012"
       id="path4201"
       inkscape:connector-curvature="0"
       sodipodi:nodetypes="cc" />
    <path
       style="fill:none;fill-opacity:1;stroke:#ffffff;stroke-width:0.366;stroke-linecap:round;stroke-linejoin:miter;stroke-miterlimit:4;stroke-dasharray:none;stroke-dashoffset:0;stroke-opacity:1"
       d="m 259.23236,297.8026 c 2.25037,1.11265 3.81011,2.64028 5.723,5.45246"
       id="path4197"
       inkscape:connector-curvature="0"
       sodipodi:nodetypes="cc" />
    <path
       style="fill:#ffffff;fill-opacity:1;stroke:none;stroke-width:0.366;stroke-linecap:round;stroke-linejoin:miter;stroke-miterlimit:4;stroke-dasharray:none;stroke-dashoffset:0;stroke-opacity:1"
       d="M 242.66211 300.3418 C 242.12649 300.84951 241.61665 301.41448 241.11523 302.00586 L 264.03516 302.00586 C 263.57343 301.39601 263.11381 300.81968 262.6582 300.3418 L 242.66211 300.3418 z "
       id="path4211" />
  </g>
</svg>
