<?xml version="1.0" encoding="utf-8"?>
<!-- Generator: Adobe Illustrator 21.1.0, SVG Export Plug-In . SVG Version: 6.00 Build 0)  -->
<svg version="1.1" baseProfile="tiny" id="Capa_1" xmlns="http://www.w3.org/2000/svg" xmlns:xlink="http://www.w3.org/1999/xlink"
	 x="0px" y="0px" viewBox="0 0 377.3 377.3" xml:space="preserve">
<g>
	<path fill="#3F2D20" d="M270,213.9c-11.8-14-21.9-26.1-21.9-44.3c0-24.2-4.5-41.9-13.7-54.2c-8.7-11.6-21.5-18.2-38.3-19.7V45.6
		c0.1-2.7,0.3-31.5-21-44.5c-3.5-2.2-8.2-1-10.3,2.5c-2.2,3.5-1,8.2,2.5,10.3c7.9,4.8,11.3,13.9,12.7,21c-3.7-1.5-8.2-2.6-13.6-3.3
		c-4.6-0.6-10.1-0.9-16.1-0.9c-11.2,0-22.5,1-31.2,2.8c-8.6,1.8-20.1,5.3-21.3,14.7c-1.1,8.5,6.8,15.8,24.8,22.9
		c12,4.8,26.7,8.8,37.6,10.1c2.9,0.4,5.6,0.5,8.2,0.5c5.1,0,9.3-0.8,12.7-2v15.7c-16.7,1.5-29.6,8.1-38.3,19.7
		c-9.2,12.3-13.7,30.1-13.7,54.2c0,18.2-10.2,30.3-21.9,44.3c-14.1,16.8-30.1,35.8-30.1,68.4c0,29.4,11.5,54,33.3,71.1
		c19.7,15.4,47.4,23.9,78.1,23.9s58.4-8.5,78.1-23.9c21.8-17.1,33.3-41.7,33.3-71.1C300.1,249.7,284.1,230.7,270,213.9z
		 M118.8,223.5c12.5-14.9,25.4-30.3,25.4-53.9c0-41.5,13.3-59.2,44.4-59.2s44.4,17.7,44.4,59.2c0,23.6,12.9,39,25.4,53.9
		c13.6,16.3,26.5,31.6,26.5,58.7c0,59-51.9,80-96.4,80s-96.4-20.9-96.4-80C92.2,255.2,105.1,239.8,118.8,223.5z M164.6,46.6
		c18.6,1.7,16.5,11.8,16.4,12.2c-0.4,3.3-1,8.2-12.6,8.2c-1.9,0-4-0.1-6.3-0.4c-17.1-2.1-40.1-10.6-47.4-16
		c5.6-2.2,18.7-4.7,35.7-4.7C155.7,45.8,160.6,46.2,164.6,46.6z"/>
</g>
</svg>
