<?xml version="1.0" encoding="utf-8"?>
<!-- Generator: Adobe Illustrator 21.1.0, SVG Export Plug-In . SVG Version: 6.00 Build 0)  -->
<svg version="1.1" baseProfile="tiny" id="Capa_1" xmlns="http://www.w3.org/2000/svg" xmlns:xlink="http://www.w3.org/1999/xlink"
	 x="0px" y="0px" viewBox="0 0 377.3 377.3" xml:space="preserve">
<g>
	<g>
		<g>
			<path fill="#FDD44B" d="M199,111.2c0.3,0,0.6,0.1,0.9,0.2C199.6,111.3,199.3,111.2,199,111.2z"/>
			<path fill="#FDD44B" d="M193.8,110.6c0.3,0,0.5,0,0.8,0.1C194.3,110.6,194,110.6,193.8,110.6z"/>
			<path fill="#FDD44B" d="M92.5,289c0-0.5-0.1-1.1-0.1-1.6C92.4,287.9,92.5,288.5,92.5,289z"/>
			<path fill="#FDD44B" d="M93,294.1c-0.1-0.6-0.2-1.2-0.2-1.8C92.8,292.9,92.9,293.5,93,294.1z"/>
			<path fill="#FDD44B" d="M204.1,112.3c0.3,0.1,0.5,0.1,0.7,0.2C204.5,112.4,204.3,112.3,204.1,112.3z"/>
			<path fill="#FDD44B" d="M220.1,121.6c-0.2-0.2-0.5-0.5-0.7-0.7C219.7,121.1,219.9,121.4,220.1,121.6z"/>
			<path fill="#FDD44B" d="M224.7,127.7c0.2,0.4,0.4,0.7,0.7,1.1C225.1,128.4,224.9,128,224.7,127.7z"/>
			<path fill="#FDD44B" d="M208.4,113.7c0.2,0.1,0.3,0.1,0.5,0.2C208.7,113.8,208.5,113.8,208.4,113.7z"/>
			<path fill="#FDD44B" d="M93.8,298.9c-0.1-0.6-0.2-1.2-0.3-1.9C93.5,297.7,93.6,298.3,93.8,298.9z"/>
			<path fill="#FDD44B" d="M212.2,115.5c0.3,0.2,0.6,0.3,0.9,0.5C212.8,115.8,212.5,115.7,212.2,115.5z"/>
			<path fill="#FDD44B" d="M222.1,123.9c0.2,0.3,0.4,0.6,0.7,0.8C222.5,124.5,222.3,124.2,222.1,123.9z"/>
			<path fill="#FDD44B" d="M216,117.9c0.3,0.2,0.6,0.4,0.9,0.7C216.6,118.4,216.3,118.1,216,117.9z"/>
			<path fill="#FDD44B" d="M111.3,333.9c-0.4-0.4-0.7-0.8-1.1-1.2C110.6,333.1,111,333.5,111.3,333.9z"/>
			<path fill="#FDD44B" d="M94.8,303.4c-0.1-0.6-0.3-1.2-0.4-1.8C94.5,302.2,94.6,302.8,94.8,303.4z"/>
			<path fill="#FDD44B" d="M113.2,335.7c0.3,0.3,0.6,0.6,1,1C113.8,336.4,113.5,336,113.2,335.7z"/>
			<path fill="#FDD44B" d="M258.5,223.5c-12.5-14.9-25.4-30.3-25.4-53.9c0-17.7-2.4-31-7.6-40.5c-6.6-4.1-14.9-6-25.2-6
				c-31.2,0-44.4,17.7-44.4,59.2c0,23.6-12.9,39-25.4,53.9c-13.6,16.3-26.5,31.6-26.5,58.7c0,18.2,5,32.9,13.1,44.3
				c19.2,16.3,46.6,23,71.6,23c44.5,0,96.4-20.9,96.4-80C285.1,255.2,272.2,239.8,258.5,223.5z"/>
			<path fill="#FDD44B" d="M106.2,327.7c-0.3-0.4-0.7-0.9-1-1.4C105.5,326.8,105.9,327.3,106.2,327.7z"/>
			<path fill="#FDD44B" d="M108.7,330.9c-0.4-0.4-0.7-0.9-1-1.3C108,330,108.3,330.4,108.7,330.9z"/>
			<path fill="#FDD44B" d="M103.8,324.3c-0.3-0.5-0.6-0.9-0.9-1.4C103.3,323.4,103.6,323.9,103.8,324.3z"/>
			<path fill="#FDD44B" d="M96,307.7c-0.2-0.5-0.3-1.1-0.5-1.6C95.7,306.6,95.8,307.2,96,307.7z"/>
			<path fill="#FDD44B" d="M97.4,311.8c-0.2-0.4-0.3-0.9-0.5-1.3C97.1,310.9,97.2,311.4,97.4,311.8z"/>
			<path fill="#FDD44B" d="M101.6,320.7c-0.2-0.4-0.5-0.8-0.7-1.2C101.1,319.8,101.4,320.2,101.6,320.7z"/>
			<path fill="#FDD44B" d="M99.2,316c0-0.1-0.1-0.2-0.2-0.3C99.1,315.8,99.2,315.9,99.2,316z"/>
		</g>
	</g>
</g>
</svg>
