<?xml version="1.0" encoding="utf-8"?>
<!-- Generator: Adobe Illustrator 21.1.0, SVG Export Plug-In . SVG Version: 6.00 Build 0)  -->
<svg version="1.1" baseProfile="tiny" id="Capa_1" xmlns="http://www.w3.org/2000/svg" xmlns:xlink="http://www.w3.org/1999/xlink"
	 x="0px" y="0px" viewBox="0 0 377.3 377.3" xml:space="preserve">
<g>
	<g>
		<g>
			<path fill="#84BD93" d="M178,51.1c0,0-0.1-0.1-0.1-0.1C177.9,51,178,51.1,178,51.1z"/>
			<path fill="#84BD93" d="M176.6,50c0.1,0.1,0.2,0.1,0.2,0.2C176.7,50.1,176.6,50.1,176.6,50z"/>
			<path fill="#84BD93" d="M174.8,49.1c0.1,0.1,0.2,0.1,0.3,0.2C175,49.2,174.9,49.1,174.8,49.1z"/>
			<path fill="#84BD93" d="M179.7,53.1c0.1,0.1,0.1,0.2,0.1,0.2C179.8,53.3,179.8,53.2,179.7,53.1z"/>
			<path fill="#84BD93" d="M180.3,54c0,0.1,0.1,0.1,0.1,0.2C180.4,54.2,180.3,54.1,180.3,54z"/>
			<path fill="#84BD93" d="M172.9,48.3C173,48.3,173,48.3,172.9,48.3C173,48.3,173,48.3,172.9,48.3z"/>
			<path fill="#84BD93" d="M178.9,52c0.1,0.1,0.1,0.2,0.2,0.2C179,52.2,179,52.1,178.9,52z"/>
			<path fill="#84BD93" d="M118.7,53c-0.6-0.3-1.1-0.6-1.6-0.9C117.6,52.4,118.1,52.7,118.7,53z"/>
			<path fill="#84BD93" d="M170.5,47.5c0.1,0,0.3,0.1,0.4,0.1C170.7,47.6,170.6,47.6,170.5,47.5z"/>
			<path fill="#84BD93" d="M124.9,55.9c-0.9-0.4-1.8-0.8-2.6-1.2C123.1,55.1,124,55.5,124.9,55.9z"/>
			<path fill="#84BD93" d="M180.6,54.9c-2.2-0.8-4.9-1.4-8.5-1.7c-4-0.4-8.9-0.8-14.2-0.8c-14.5,0-26.2,1.8-32.8,3.7
				c10.3,4.4,25,9,36.9,10.4c2.3,0.3,4.4,0.4,6.3,0.4c11.6,0,12.2-4.9,12.6-8.2C181,58.6,181.3,56.9,180.6,54.9z"/>
			<path fill="#84BD93" d="M121.4,54.4c-0.7-0.3-1.3-0.6-1.9-0.9C120.1,53.7,120.8,54,121.4,54.4z"/>
			<path fill="#84BD93" d="M116.4,51.7c-0.7-0.4-1.3-0.8-1.8-1.2C115.2,50.9,115.8,51.3,116.4,51.7z"/>
			<path fill="#84BD93" d="M167.5,46.9c0.2,0,0.4,0.1,0.5,0.1C167.9,47,167.7,47,167.5,46.9z"/>
		</g>
	</g>
</g>
</svg>
